<svg version="1.1" class="highcharts-root" style="font-family: &quot;Lucida Grande&quot;, &quot;Lucida Sans Unicode&quot;, Arial, Helvetica, sans-serif; font-size: 12px;" xmlns="http://www.w3.org/2000/svg" width="589" height="400" viewBox="0 0 589 400" role="img" aria-label=""><desc>Created with Highcharts 10.2.1</desc><defs><clipPath id="highcharts-of8pmjr-7-"><rect x="0" y="0" width="569" height="375" fill="none"></rect></clipPath><clipPath id="highcharts-of8pmjr-8-"><rect x="0" y="0" width="569" height="375" fill="none"></rect></clipPath></defs><rect fill="transparent" class="highcharts-background" x="0" y="0" width="589" height="400" rx="0" ry="0"></rect><rect fill="none" class="highcharts-plot-background" x="10" y="10" width="569" height="375"></rect><rect fill="none" class="highcharts-plot-border" data-z-index="1" x="10" y="10" width="569" height="375"></rect><g class="highcharts-series-group" data-z-index="3"><g class="highcharts-series highcharts-series-0 highcharts-map-series highcharts-color-0 highcharts-tracker" data-z-index="0.1" opacity="1" transform="translate(10,10) scale(1 1)" clip-path="url(#highcharts-of8pmjr-8-)"><g transform="translate(52.38995391705075,568.3366820276497) scale(0.052442396313364045 -0.052442396313364045)" stroke-width="19.068541300527244"><path fill="#2e2e2e" d="M 4565 8339 L 4573 8321 L 4568 8300 L 4540 8327 L 4565 8339 L 4565 8339 M 4626 8335 L 4615 8302 L 4593 8291 L 4579 8298 L 4605 8305 L 4586 8315 L 4577 8336 L 4598 8344 L 4602 8334 L 4615 8353 L 4626 8349 L 4626 8335 L 4626 8335 M 4544 7853 L 4534 7844 L 4536 7819 L 4526 7793 L 4514 7799 L 4507 7823 L 4511 7835 L 4528 7839 L 4530 7850 L 4544 7853 L 4544 7853 M 4887 9499 L 4905 9499 L 4910 9478 L 4875 9474 L 4849 9493 L 4887 9499 L 4887 9499 M 4709 8944 L 4720 8947 L 4729 8933 L 4742 8945 L 4738 8917 L 4718 8917 L 4637 8897 L 4689 8920 L 4678 8930 L 4709 8944 L 4709 8944 M 4893 9475 L 4931 9478 L 4950 9453 L 4974 9450 L 4938 9415 L 4915 9415 L 4925 9433 L 4870 9426 L 4869 9434 L 4892 9456 L 4869 9467 L 4893 9475 L 4893 9475 M 4820 8447 L 4824 8430 L 4808 8420 L 4812 8406 L 4793 8387 L 4788 8411 L 4798 8423 L 4820 8431 L 4820 8447 L 4820 8447 M 5728 8944 L 5724 8950 L 5700 8929 L 5673 8942 L 5676 8961 L 5704 8973 L 5734 8956 L 5728 8944 L 5728 8944 M 5936 9600 L 5894 9599 L 5902 9615 L 5940 9619 L 5930 9625 L 5974 9624 L 5979 9591 L 6020 9602 L 6001 9587 L 5968 9588 L 5973 9603 L 5936 9600 L 5936 9600 M 5855 9618 L 5837 9624 L 5828 9604 L 5790 9611 L 5810 9620 L 5830 9613 L 5840 9634 L 5855 9618 L 5855 9618 M 5922 9644 L 5897 9635 L 5843 9649 L 5876 9654 L 5862 9669 L 5903 9664 L 5952 9648 L 5922 9644 L 5922 9644 M 6158 9675 L 6180 9655 L 6150 9643 L 6112 9639 L 6094 9650 L 6139 9660 L 6158 9675 L 6158 9675 M 5669 9637 L 5660 9644 L 5611 9622 L 5581 9636 L 5675 9649 L 5688 9634 L 5669 9637 L 5669 9637 M 4919 8461 L 4904 8473 L 4920 8478 L 4942 8458 L 4932 8447 L 4908 8438 L 4899 8453 L 4919 8461 L 4919 8461 M 4368 7747 L 4350 7723 L 4324 7732 L 4341 7742 L 4368 7747 L 4368 7747 M 4702 7703 L 4699 7681 L 4711 7687 L 4700 7653 L 4706 7643 L 4698 7631 L 4681 7636 L 4643 7659 L 4627 7662 L 4618 7674 L 4640 7683 L 4642 7700 L 4649 7680 L 4661 7676 L 4694 7683 L 4702 7703 L 4702 7703 M 4533 7787 L 4544 7763 L 4536 7715 L 4521 7717 L 4515 7706 L 4497 7716 L 4506 7741 L 4499 7783 L 4506 7774 L 4527 7789 L 4533 7787 L 4533 7787 M 5022 7660 L 5045 7670 L 5037 7655 L 5050 7643 L 5055 7630 L 5067 7617 L 5086 7623 L 5072 7605 L 5036 7655 L 5022 7660 L 5022 7660 M 4969 7661 L 4972 7666 L 4979 7637 L 4999 7636 L 4995 7646 L 5014 7646 L 5029 7626 L 5004 7638 L 4988 7629 L 4979 7635 L 4969 7661 L 4969 7661 M 4975 7710 L 4966 7690 L 4989 7673 L 4997 7661 L 4987 7655 L 4981 7674 L 4938 7705 L 4963 7700 L 4975 7710 L 4975 7710 M 5025 7695 L 5020 7682 L 5007 7695 L 5022 7696 L 5025 7711 L 5016 7719 L 5030 7724 L 5037 7711 L 5025 7695 L 5025 7695 M 4941 7603 L 4969 7588 L 5013 7587 L 5027 7577 L 4983 7573 L 4973 7582 L 4962 7571 L 4947 7585 L 4941 7603 L 4941 7603 M 4096 7606 L 4096 7606 L 4096 7606 L 4096 7606 L 4096 7606 L 4096 7606 M 4129 7581 L 4129 7581 L 4129 7581 L 4129 7581 L 4129 7581 L 4129 7581 M 5226 7564 L 5223 7564 L 5219 7564 L 5221 7566 L 5226 7564 L 5226 7564 M 5252 7574 L 5251 7574 L 5249 7575 L 5249 7575 L 5249 7575 L 5249 7575 L 5248 7575 L 5249 7575 L 5248 7575 L 5246 7575 L 5248 7576 L 5247 7576 L 5248 7576 L 5248 7576 L 5248 7576 L 5249 7577 L 5252 7574 L 5252 7574 M 5039 7756 L 5024 7747 L 5026 7756 L 5044 7766 L 5022 7766 L 5008 7759 L 5001 7738 L 4990 7727 L 4991 7745 L 4999 7744 L 5006 7775 L 4992 7780 L 4984 7766 L 4978 7778 L 4952 7769 L 4959 7758 L 4942 7752 L 4926 7762 L 4919 7747 L 4942 7717 L 4925 7703 L 4960 7686 L 4962 7665 L 4949 7678 L 4945 7639 L 4925 7636 L 4917 7625 L 4907 7643 L 4893 7634 L 4889 7662 L 4865 7671 L 4877 7687 L 4860 7700 L 4877 7710 L 4848 7717 L 4849 7732 L 4828 7752 L 4823 7767 L 4829 7776 L 4826 7794 L 4831 7808 L 4819 7813 L 4804 7831 L 4779 7843 L 4753 7842 L 4746 7855 L 4729 7851 L 4738 7861 L 4700 7882 L 4704 7898 L 4675 7927 L 4666 7915 L 4655 7926 L 4654 7951 L 4614 7933 L 4619 7895 L 4656 7869 L 4669 7836 L 4700 7812 L 4727 7813 L 4726 7795 L 4785 7768 L 4800 7749 L 4795 7738 L 4780 7755 L 4757 7763 L 4743 7748 L 4741 7734 L 4760 7724 L 4758 7707 L 4742 7701 L 4742 7691 L 4728 7675 L 4716 7675 L 4721 7699 L 4731 7702 L 4726 7726 L 4714 7748 L 4694 7753 L 4689 7768 L 4677 7765 L 4650 7773 L 4654 7787 L 4639 7788 L 4571 7843 L 4552 7887 L 4512 7901 L 4495 7884 L 4476 7878 L 4436 7850 L 4371 7869 L 4347 7854 L 4345 7834 L 4353 7826 L 4341 7805 L 4316 7789 L 4284 7781 L 4246 7728 L 4249 7713 L 4262 7701 L 4240 7688 L 4234 7663 L 4206 7655 L 4193 7634 L 4125 7633 L 4103 7623 L 4090 7609 L 4074 7619 L 4064 7641 L 4037 7649 L 4022 7641 L 4001 7647 L 3990 7643 L 3996 7659 L 3996 7689 L 3976 7701 L 3988 7734 L 4001 7779 L 3993 7818 L 4001 7825 L 3982 7847 L 3986 7857 L 4010 7865 L 4023 7877 L 4042 7870 L 4096 7870 L 4126 7864 L 4151 7869 L 4193 7860 L 4212 7871 L 4220 7910 L 4223 7943 L 4215 7958 L 4222 7968 L 4186 7985 L 4192 8007 L 4139 8028 L 4104 8050 L 4164 8065 L 4176 8052 L 4215 8057 L 4202 8085 L 4189 8077 L 4190 8097 L 4214 8097 L 4220 8087 L 4249 8081 L 4267 8087 L 4262 8098 L 4290 8107 L 4300 8119 L 4302 8142 L 4359 8163 L 4388 8199 L 4399 8234 L 4407 8241 L 4487 8257 L 4507 8247 L 4507 8260 L 4520 8261 L 4499 8302 L 4511 8312 L 4493 8329 L 4502 8343 L 4494 8370 L 4509 8394 L 4532 8396 L 4548 8414 L 4567 8421 L 4557 8385 L 4560 8371 L 4578 8366 L 4534 8326 L 4537 8301 L 4550 8288 L 4572 8278 L 4588 8282 L 4571 8267 L 4590 8265 L 4623 8285 L 4634 8280 L 4649 8292 L 4673 8263 L 4730 8277 L 4742 8288 L 4794 8300 L 4802 8283 L 4832 8284 L 4844 8304 L 4880 8304 L 4879 8328 L 4872 8358 L 4875 8383 L 4893 8413 L 4940 8422 L 4939 8394 L 4952 8388 L 4972 8399 L 4970 8426 L 4977 8447 L 4960 8445 L 4947 8455 L 4945 8484 L 4964 8488 L 4976 8501 L 4972 8521 L 4944 8516 L 4927 8523 L 4917 8512 L 4911 8534 L 4886 8542 L 4875 8539 L 4857 8518 L 4836 8521 L 4841 8535 L 4856 8529 L 4884 8547 L 4889 8592 L 4880 8607 L 4883 8624 L 4875 8639 L 4883 8663 L 4913 8668 L 4920 8686 L 4943 8695 L 4984 8741 L 4998 8739 L 5001 8771 L 4977 8786 L 4924 8782 L 4913 8768 L 4898 8773 L 4874 8739 L 4887 8721 L 4866 8694 L 4834 8673 L 4822 8675 L 4803 8660 L 4776 8628 L 4768 8632 L 4767 8595 L 4760 8562 L 4774 8541 L 4784 8541 L 4809 8523 L 4814 8509 L 4807 8483 L 4753 8458 L 4749 8437 L 4738 8427 L 4757 8399 L 4738 8357 L 4743 8391 L 4721 8351 L 4687 8354 L 4673 8340 L 4678 8328 L 4701 8312 L 4698 8306 L 4672 8322 L 4636 8324 L 4639 8334 L 4623 8359 L 4634 8375 L 4619 8386 L 4610 8409 L 4594 8430 L 4585 8466 L 4563 8497 L 4563 8485 L 4540 8473 L 4505 8443 L 4478 8432 L 4447 8437 L 4416 8464 L 4419 8480 L 4407 8483 L 4408 8497 L 4421 8512 L 4408 8511 L 4409 8528 L 4392 8565 L 4415 8564 L 4401 8581 L 4413 8587 L 4396 8600 L 4415 8610 L 4420 8624 L 4447 8632 L 4458 8650 L 4493 8659 L 4500 8684 L 4515 8687 L 4525 8677 L 4540 8683 L 4552 8668 L 4592 8691 L 4581 8692 L 4547 8677 L 4536 8689 L 4554 8709 L 4575 8722 L 4573 8741 L 4585 8739 L 4626 8754 L 4610 8758 L 4631 8794 L 4619 8790 L 4632 8817 L 4642 8816 L 4655 8842 L 4668 8845 L 4679 8866 L 4714 8882 L 4690 8886 L 4721 8894 L 4705 8897 L 4771 8917 L 4741 8917 L 4744 8928 L 4769 8954 L 4750 8949 L 4780 8977 L 4787 8965 L 4837 8988 L 4835 9012 L 4860 8993 L 4861 9011 L 4915 9014 L 4913 9036 L 4941 9040 L 4929 9022 L 4951 9023 L 4931 9009 L 4933 9000 L 4959 9025 L 4960 9053 L 4970 9039 L 4984 9053 L 4995 9048 L 5010 9060 L 5025 9052 L 4993 9025 L 4994 9003 L 5031 9045 L 5040 9049 L 5035 9018 L 5065 9043 L 5066 9057 L 5095 9051 L 5074 9024 L 5086 9020 L 5102 9045 L 5137 9036 L 5169 9013 L 5142 9002 L 5097 9005 L 5152 8989 L 5191 8982 L 5198 8997 L 5229 8981 L 5201 8980 L 5241 8968 L 5234 8958 L 5261 8967 L 5275 8959 L 5313 8955 L 5363 8931 L 5386 8913 L 5432 8896 L 5462 8880 L 5472 8846 L 5445 8816 L 5412 8802 L 5371 8800 L 5340 8810 L 5296 8816 L 5279 8826 L 5240 8832 L 5204 8851 L 5224 8822 L 5270 8801 L 5282 8781 L 5268 8765 L 5283 8741 L 5278 8726 L 5297 8714 L 5312 8720 L 5310 8748 L 5327 8744 L 5344 8756 L 5374 8740 L 5419 8726 L 5443 8744 L 5423 8767 L 5427 8777 L 5455 8795 L 5471 8799 L 5508 8834 L 5507 8815 L 5527 8817 L 5554 8790 L 5553 8811 L 5564 8829 L 5558 8849 L 5544 8854 L 5556 8908 L 5529 8926 L 5588 8923 L 5606 8918 L 5629 8887 L 5589 8881 L 5577 8861 L 5596 8853 L 5604 8839 L 5625 8836 L 5659 8845 L 5662 8873 L 5690 8881 L 5760 8921 L 5791 8925 L 5827 8942 L 5854 8944 L 5835 8929 L 5843 8913 L 5869 8904 L 5871 8915 L 5901 8928 L 5941 8924 L 5960 8939 L 5987 8946 L 5992 8959 L 6003 8934 L 5994 8916 L 6010 8912 L 6013 8929 L 6047 8943 L 6024 8976 L 6034 8984 L 6007 8983 L 6003 8993 L 5978 9003 L 5976 9016 L 6001 9017 L 6034 8994 L 6034 8984 L 6043 8991 L 6097 8985 L 6141 8975 L 6188 8950 L 6236 8936 L 6249 8921 L 6223 8855 L 6201 8819 L 6146 8748 L 6145 8693 L 6137 8621 L 6125 8567 L 6103 8501 L 6076 8442 L 6054 8381 L 6041 8382 L 6031 8337 L 6003 8319 L 6000 8294 L 6028 8269 L 6033 8252 L 6017 8240 L 6015 8217 L 6023 8180 L 6059 8158 L 6050 8141 L 6005 8140 L 5959 8152 L 5918 8149 L 5885 8155 L 5846 8157 L 5821 8152 L 5785 8120 L 5772 8100 L 5769 8073 L 5759 8055 L 5746 8015 L 5745 7994 L 5664 7945 L 5656 7948 L 5643 7921 L 5629 7902 L 5655 7882 L 5651 7851 L 5684 7809 L 5663 7787 L 5645 7790 L 5625 7807 L 5597 7823 L 5599 7833 L 5575 7842 L 5547 7834 L 5543 7841 L 5503 7858 L 5477 7858 L 5451 7869 L 5431 7864 L 5431 7864 L 5402 7891 L 5378 7901 L 5369 7911 L 5331 7929 L 5365 7933 L 5361 7946 L 5372 7960 L 5389 7963 L 5372 7972 L 5365 7983 L 5410 7996 L 5410 8005 L 5360 7999 L 5353 7991 L 5311 7982 L 5279 7965 L 5294 7935 L 5331 7938 L 5327 7924 L 5303 7926 L 5269 7912 L 5254 7900 L 5243 7908 L 5242 7925 L 5223 7935 L 5222 7945 L 5249 7956 L 5233 7967 L 5211 7961 L 5185 7968 L 5212 7980 L 5167 7981 L 5132 7944 L 5126 7917 L 5111 7914 L 5098 7898 L 5096 7869 L 5083 7865 L 5068 7831 L 5081 7802 L 5111 7788 L 5108 7780 L 5086 7783 L 5065 7779 L 5054 7767 L 5043 7759 L 5039 7756 L 5039 7756 M 4772 9585 L 4806 9562 L 4812 9536 L 4868 9529 L 4857 9522 L 4888 9516 L 4884 9504 L 4864 9506 L 4814 9491 L 4816 9467 L 4802 9465 L 4790 9429 L 4777 9427 L 4750 9371 L 4706 9399 L 4678 9411 L 4664 9432 L 4700 9442 L 4751 9449 L 4749 9453 L 4659 9446 L 4655 9465 L 4697 9469 L 4720 9483 L 4753 9484 L 4709 9491 L 4691 9508 L 4678 9493 L 4686 9486 L 4663 9475 L 4638 9474 L 4609 9501 L 4601 9490 L 4613 9475 L 4582 9489 L 4565 9512 L 4584 9508 L 4587 9532 L 4570 9563 L 4576 9569 L 4603 9582 L 4618 9570 L 4661 9584 L 4651 9565 L 4663 9562 L 4683 9580 L 4704 9567 L 4711 9547 L 4736 9520 L 4725 9546 L 4717 9584 L 4734 9597 L 4750 9584 L 4772 9585 L 4772 9585 M 5015 9555 L 4969 9546 L 4963 9538 L 4929 9540 L 4929 9553 L 4867 9551 L 4849 9557 L 4835 9548 L 4833 9566 L 4898 9573 L 4899 9580 L 4808 9574 L 4790 9585 L 4809 9594 L 4785 9601 L 4794 9617 L 4824 9598 L 4815 9616 L 4832 9608 L 4855 9621 L 4859 9637 L 4869 9606 L 4898 9611 L 4913 9593 L 4924 9626 L 4939 9623 L 4932 9604 L 4971 9612 L 5044 9604 L 5054 9582 L 5015 9567 L 5015 9555 L 5015 9555 M 5897 9674 L 5887 9683 L 5918 9678 L 5932 9698 L 5973 9694 L 5970 9702 L 5960 9718 L 5997 9721 L 5978 9689 L 6015 9681 L 6012 9672 L 5955 9687 L 5963 9668 L 5980 9664 L 5973 9643 L 5926 9662 L 5933 9678 L 5897 9674 L 5897 9674 M 6022 9661 L 6069 9668 L 6074 9700 L 6085 9710 L 6128 9709 L 6122 9702 L 6084 9700 L 6081 9634 L 6051 9620 L 5998 9628 L 6005 9647 L 6051 9650 L 6022 9661 L 6022 9661 M 6269 9396 L 6283 9372 L 6230 9343 L 6060 9297 L 6044 9286 L 6028 9262 L 5999 9256 L 5995 9245 L 5967 9253 L 5982 9233 L 5968 9230 L 5954 9203 L 5895 9150 L 5884 9123 L 5887 9101 L 5905 9066 L 5950 9037 L 5936 9025 L 5903 9029 L 5885 9038 L 5878 9028 L 5858 9040 L 5823 9045 L 5837 9060 L 5821 9068 L 5814 9050 L 5792 9067 L 5806 9074 L 5771 9082 L 5767 9099 L 5781 9115 L 5797 9111 L 5808 9142 L 5803 9154 L 5823 9155 L 5819 9170 L 5859 9197 L 5833 9205 L 5867 9218 L 5884 9245 L 5910 9247 L 5888 9257 L 5914 9261 L 5899 9268 L 5922 9274 L 5915 9281 L 5933 9301 L 5953 9297 L 5948 9308 L 5967 9312 L 5982 9331 L 6012 9333 L 6028 9344 L 6052 9342 L 6052 9354 L 6090 9349 L 6139 9356 L 6185 9372 L 6224 9395 L 6269 9396 L 6269 9396 M 5627 9613 L 5658 9617 L 5679 9631 L 5700 9627 L 5715 9636 L 5696 9645 L 5737 9662 L 5776 9638 L 5754 9629 L 5718 9626 L 5723 9608 L 5742 9591 L 5755 9599 L 5768 9587 L 5727 9590 L 5711 9617 L 5640 9604 L 5627 9613 L 5627 9613 M 3785 8707 L 3755 8691 L 3733 8686 L 3704 8672 L 3661 8679 L 3632 8694 L 3587 8692 L 3616 8710 L 3598 8726 L 3599 8736 L 3547 8742 L 3614 8750 L 3592 8756 L 3611 8768 L 3573 8775 L 3552 8767 L 3533 8772 L 3557 8785 L 3565 8806 L 3593 8795 L 3575 8817 L 3591 8819 L 3628 8795 L 3623 8775 L 3634 8760 L 3647 8781 L 3659 8783 L 3654 8800 L 3664 8802 L 3677 8784 L 3701 8806 L 3713 8797 L 3725 8822 L 3737 8794 L 3749 8805 L 3770 8805 L 3769 8821 L 3784 8822 L 3803 8803 L 3819 8815 L 3812 8798 L 3823 8799 L 3818 8783 L 3855 8772 L 3854 8747 L 3830 8732 L 3827 8719 L 3785 8707 L 3785 8707 M 3972 8209 L 3982 8231 L 3956 8248 L 3974 8257 L 3961 8275 L 3966 8279 L 4006 8277 L 4016 8292 L 4000 8291 L 4012 8313 L 4038 8322 L 4056 8314 L 4070 8318 L 4092 8292 L 4081 8269 L 4068 8266 L 4079 8224 L 4068 8193 L 4036 8191 L 3999 8169 L 3966 8164 L 3950 8181 L 3964 8191 L 3947 8190 L 3972 8209 L 3972 8209 M 4048 8442 L 4071 8454 L 4067 8441 L 4076 8405 L 4089 8412 L 4084 8425 L 4108 8459 L 4118 8455 L 4155 8460 L 4162 8481 L 4181 8479 L 4160 8445 L 4135 8429 L 4144 8424 L 4130 8410 L 4152 8419 L 4198 8418 L 4203 8409 L 4181 8372 L 4179 8359 L 4162 8350 L 4192 8344 L 4207 8330 L 4223 8291 L 4239 8285 L 4253 8270 L 4265 8229 L 4255 8221 L 4293 8223 L 4307 8205 L 4302 8189 L 4284 8179 L 4281 8169 L 4297 8162 L 4295 8152 L 4263 8137 L 4250 8140 L 4216 8131 L 4216 8139 L 4183 8131 L 4171 8137 L 4152 8130 L 4148 8117 L 4115 8121 L 4102 8107 L 4095 8116 L 4133 8155 L 4166 8154 L 4176 8170 L 4151 8163 L 4126 8177 L 4110 8170 L 4100 8183 L 4132 8197 L 4134 8222 L 4121 8241 L 4133 8235 L 4161 8241 L 4173 8271 L 4160 8270 L 4148 8286 L 4155 8302 L 4139 8297 L 4126 8303 L 4127 8282 L 4104 8300 L 4119 8327 L 4098 8343 L 4105 8324 L 4085 8319 L 4090 8338 L 4085 8348 L 4092 8365 L 4069 8359 L 4073 8379 L 4083 8379 L 4088 8397 L 4063 8392 L 4067 8411 L 4063 8428 L 4044 8417 L 4048 8442 L 4048 8442 Z" stroke="transparent" stroke-width="inherit" opacity="1" class="highcharts-point highcharts-null-point highcharts-color-0 highcharts-name-europe highcharts-key-eu"></path><path fill="#2e2e2e" d="M 8861 6273 L 8858 6285 L 8876 6279 L 8880 6265 L 8890 6274 L 8910 6251 L 8861 6273 L 8861 6273 M 8303 5422 L 8316 5416 L 8298 5405 L 8276 5406 L 8272 5416 L 8303 5422 L 8303 5422 M 9069 5923 L 9115 5893 L 9127 5878 L 9149 5866 L 9183 5837 L 9179 5835 L 9138 5856 L 9107 5875 L 9090 5893 L 9069 5923 L 9069 5923 M 8092 6165 L 8080 6162 L 8090 6179 L 8100 6175 L 8115 6180 L 8124 6172 L 8108 6158 L 8092 6165 L 8092 6165 M 8803 6349 L 8800 6358 L 8841 6318 L 8847 6306 L 8831 6294 L 8835 6307 L 8825 6311 L 8821 6322 L 8807 6335 L 8803 6349 L 8803 6349 M 8680 6431 L 8674 6439 L 8709 6424 L 8720 6416 L 8725 6426 L 8732 6408 L 8745 6420 L 8740 6402 L 8759 6384 L 8752 6367 L 8746 6387 L 8734 6404 L 8699 6426 L 8680 6431 L 8680 6431 M 9170 6069 L 9180 6034 L 9192 6023 L 9182 6019 L 9171 6035 L 9172 6051 L 9161 6047 L 9156 6056 L 9156 6078 L 9162 6062 L 9170 6069 L 9170 6069 M 9019 6225 L 9012 6209 L 9028 6191 L 9014 6194 L 9000 6209 L 9012 6209 L 9018 6224 L 9007 6222 L 8987 6240 L 8979 6265 L 8980 6277 L 9002 6230 L 9019 6225 L 9019 6225 M 8937 6241 L 8963 6246 L 8984 6224 L 8980 6217 L 8956 6222 L 8950 6236 L 8937 6241 L 8937 6241 M 8402 6242 L 8402 6307 L 8402 6433 L 8434 6419 L 8475 6409 L 8493 6415 L 8485 6403 L 8506 6397 L 8521 6382 L 8544 6366 L 8541 6350 L 8563 6345 L 8580 6335 L 8592 6334 L 8603 6323 L 8604 6313 L 8578 6311 L 8584 6290 L 8612 6273 L 8625 6244 L 8642 6246 L 8644 6231 L 8667 6226 L 8673 6239 L 8689 6233 L 8695 6212 L 8677 6230 L 8659 6221 L 8665 6214 L 8685 6209 L 8677 6205 L 8691 6199 L 8673 6195 L 8660 6205 L 8608 6211 L 8580 6231 L 8552 6272 L 8543 6277 L 8505 6280 L 8483 6287 L 8489 6275 L 8480 6273 L 8475 6259 L 8461 6265 L 8473 6246 L 8451 6235 L 8402 6242 L 8402 6242 M 8910 6289 L 8897 6292 L 8897 6292 L 8908 6291 L 8910 6289 L 8910 6289 L 8910 6289 M 8910 6289 L 8924 6286 L 8957 6265 L 8927 6275 L 8910 6289 L 8910 6289 L 8910 6289 M 9523 5984 L 9518 5985 L 9518 5985 L 9521 5987 L 9523 5984 L 9523 5984 L 9523 5984 L 9523 5984 M 9523 5984 L 9532 5984 L 9530 5973 L 9523 5984 L 9523 5984 L 9523 5984 L 9523 5984 M 9518 5985 L 9499 5973 L 9496 5966 L 9496 5966 L 9496 5969 L 9480 5961 L 9469 5978 L 9474 5985 L 9465 5998 L 9476 5992 L 9486 5996 L 9512 5986 L 9518 5985 L 9518 5985 L 9518 5985 M 9496 5963 L 9495 5964 L 9496 5966 L 9496 5966 L 9496 5963 L 9496 5963 L 9496 5963 M 9496 5963 L 9505 5946 L 9496 5947 L 9496 5963 L 9496 5963 L 9496 5963 M 9535 6016 L 9534 6016 L 9534 6016 L 9534 6016 L 9534 6016 L 9535 6016 L 9535 6016 L 9535 6016 M 9535 6016 L 9546 6023 L 9544 6006 L 9541 6016 L 9535 6016 L 9535 6016 L 9535 6016 M 9202 6049 L 9201 6053 L 9201 6053 L 9201 6053 L 9201 6053 L 9202 6049 L 9202 6049 L 9202 6049 M 9202 6049 L 9206 6028 L 9194 6029 L 9203 6037 L 9202 6049 L 9202 6049 L 9202 6049 M 8549 5972 L 8566 5956 L 8563 5945 L 8591 5936 L 8599 5922 L 8637 5915 L 8641 5902 L 8627 5899 L 8644 5883 L 8659 5842 L 8668 5835 L 8663 5851 L 8676 5866 L 8691 5834 L 8691 5812 L 8702 5808 L 8710 5793 L 8719 5793 L 8746 5755 L 8757 5752 L 8766 5762 L 8757 5738 L 8761 5698 L 8771 5687 L 8768 5666 L 8773 5641 L 8755 5581 L 8753 5557 L 8741 5535 L 8742 5526 L 8721 5512 L 8694 5464 L 8689 5436 L 8672 5412 L 8664 5377 L 8667 5358 L 8652 5348 L 8617 5347 L 8596 5338 L 8575 5319 L 8563 5314 L 8562 5302 L 8544 5319 L 8518 5323 L 8519 5344 L 8477 5312 L 8443 5328 L 8422 5327 L 8383 5345 L 8365 5369 L 8369 5387 L 8351 5418 L 8343 5423 L 8320 5419 L 8330 5450 L 8316 5470 L 8304 5436 L 8280 5433 L 8244 5446 L 8231 5478 L 8220 5496 L 8205 5502 L 8205 5518 L 8186 5537 L 8185 5530 L 8161 5541 L 8144 5539 L 8113 5557 L 8049 5550 L 7999 5531 L 7967 5532 L 7906 5503 L 7901 5489 L 7888 5477 L 7830 5481 L 7785 5477 L 7763 5457 L 7751 5460 L 7737 5445 L 7717 5440 L 7686 5440 L 7666 5447 L 7656 5460 L 7641 5463 L 7637 5490 L 7646 5486 L 7657 5498 L 7658 5551 L 7643 5578 L 7637 5598 L 7637 5621 L 7624 5652 L 7613 5665 L 7600 5655 L 7612 5678 L 7609 5690 L 7588 5719 L 7576 5743 L 7583 5769 L 7592 5777 L 7591 5792 L 7601 5809 L 7598 5837 L 7609 5860 L 7613 5839 L 7627 5860 L 7655 5875 L 7649 5895 L 7665 5884 L 7691 5900 L 7707 5894 L 7730 5905 L 7750 5908 L 7761 5918 L 7772 5914 L 7813 5927 L 7829 5945 L 7838 5963 L 7853 5972 L 7849 5999 L 7872 6020 L 7889 5991 L 7888 6017 L 7894 6029 L 7914 6027 L 7916 6059 L 7930 6057 L 7932 6068 L 7944 6066 L 7935 6083 L 7962 6082 L 7989 6105 L 8001 6100 L 8025 6076 L 8022 6063 L 8036 6074 L 8073 6071 L 8060 6085 L 8070 6096 L 8076 6114 L 8086 6118 L 8083 6128 L 8108 6151 L 8139 6147 L 8158 6152 L 8158 6167 L 8131 6177 L 8155 6185 L 8172 6165 L 8191 6165 L 8209 6155 L 8219 6158 L 8228 6149 L 8252 6157 L 8269 6170 L 8269 6158 L 8283 6146 L 8260 6119 L 8261 6107 L 8282 6103 L 8268 6091 L 8268 6103 L 8253 6098 L 8240 6069 L 8274 6046 L 8307 6030 L 8319 6016 L 8345 6010 L 8373 5986 L 8397 5993 L 8415 6035 L 8422 6067 L 8418 6082 L 8420 6141 L 8429 6153 L 8436 6176 L 8438 6209 L 8450 6193 L 8457 6161 L 8467 6157 L 8463 6147 L 8474 6138 L 8477 6104 L 8489 6082 L 8505 6092 L 8510 6080 L 8530 6069 L 8528 6051 L 8532 6024 L 8554 5988 L 8549 5972 L 8549 5972 M 8508 5238 L 8511 5255 L 8523 5244 L 8562 5232 L 8603 5241 L 8612 5253 L 8601 5276 L 8617 5274 L 8622 5257 L 8616 5255 L 8618 5191 L 8608 5191 L 8607 5159 L 8595 5168 L 8575 5144 L 8550 5147 L 8528 5181 L 8526 5204 L 8518 5213 L 8508 5238 L 8508 5238 M 8702 6364 L 8717 6368 L 8712 6387 L 8739 6387 L 8734 6364 L 8726 6363 L 8729 6349 L 8712 6343 L 8681 6325 L 8656 6324 L 8647 6331 L 8620 6340 L 8613 6349 L 8637 6349 L 8642 6365 L 8654 6372 L 8668 6361 L 8671 6347 L 8697 6351 L 8702 6364 L 8702 6364 M 9245 5037 L 9213 5030 L 9204 5039 L 9196 5033 L 9204 5019 L 9179 5013 L 9191 5026 L 9188 5052 L 9160 5051 L 9152 5058 L 9166 5090 L 9208 5129 L 9247 5147 L 9288 5182 L 9299 5208 L 9316 5223 L 9317 5241 L 9333 5255 L 9344 5245 L 9347 5227 L 9366 5240 L 9367 5227 L 9378 5238 L 9375 5219 L 9382 5212 L 9360 5185 L 9352 5169 L 9336 5152 L 9346 5137 L 9325 5136 L 9295 5121 L 9291 5099 L 9274 5069 L 9276 5062 L 9245 5037 L 9245 5037 M 9412 5216 L 9391 5227 L 9401 5239 L 9409 5262 L 9401 5275 L 9367 5293 L 9366 5300 L 9390 5312 L 9398 5349 L 9384 5387 L 9384 5401 L 9374 5399 L 9346 5434 L 9349 5440 L 9334 5459 L 9345 5462 L 9348 5447 L 9370 5442 L 9390 5422 L 9388 5409 L 9405 5401 L 9418 5402 L 9427 5387 L 9432 5353 L 9474 5342 L 9490 5356 L 9507 5350 L 9499 5322 L 9487 5303 L 9473 5304 L 9458 5291 L 9456 5266 L 9431 5229 L 9412 5216 L 9412 5216 M 8896 6292 L 8876 6294 L 8857 6312 L 8874 6307 L 8894 6292 L 8896 6292 L 8896 6292 L 8896 6292 M 9534 6016 L 9528 6016 L 9511 6007 L 9508 6019 L 9531 6027 L 9545 6029 L 9534 6016 L 9534 6016 L 9534 6016 L 9534 6016 M 9201 6053 L 9192 6053 L 9200 6055 L 9201 6053 L 9201 6053 L 9201 6053 L 9201 6053 Z" stroke="transparent" stroke-width="inherit" opacity="1" class="highcharts-point highcharts-null-point highcharts-color-0 highcharts-name-oceania highcharts-key-oc"></path><path fill="#2e2e2e" d="M 3731 7363 L 3734 7372 L 3752 7352 L 3758 7360 L 3781 7367 L 3802 7353 L 3797 7341 L 3790 7349 L 3772 7354 L 3749 7350 L 3731 7363 L 3731 7363 M 4096 7606 L 4096 7606 L 4096 7606 L 4115 7584 L 4129 7581 L 4129 7581 L 4129 7581 L 4168 7587 L 4180 7579 L 4203 7580 L 4220 7594 L 4286 7625 L 4333 7629 L 4341 7636 L 4396 7639 L 4409 7631 L 4437 7639 L 4458 7639 L 4472 7645 L 4488 7637 L 4514 7642 L 4545 7654 L 4562 7633 L 4580 7645 L 4583 7638 L 4564 7620 L 4567 7604 L 4580 7596 L 4583 7584 L 4567 7561 L 4553 7553 L 4559 7533 L 4580 7536 L 4584 7517 L 4618 7504 L 4648 7507 L 4702 7490 L 4711 7466 L 4727 7454 L 4766 7448 L 4790 7438 L 4813 7422 L 4824 7422 L 4844 7439 L 4848 7452 L 4841 7468 L 4845 7483 L 4860 7495 L 4891 7507 L 4907 7508 L 4934 7498 L 4934 7488 L 4964 7477 L 4990 7476 L 4996 7462 L 5015 7465 L 5059 7457 L 5109 7439 L 5123 7443 L 5148 7461 L 5194 7462 L 5199 7447 L 5206 7454 L 5230 7446 L 5261 7455 L 5261 7455 L 5261 7455 L 5269 7434 L 5279 7404 L 5281 7396 L 5250 7321 L 5256 7305 L 5300 7223 L 5305 7191 L 5340 7164 L 5340 7151 L 5352 7126 L 5349 7112 L 5353 7075 L 5363 7063 L 5389 7044 L 5400 7022 L 5409 6983 L 5423 6958 L 5435 6980 L 5432 6957 L 5440 6948 L 5466 6939 L 5481 6919 L 5499 6908 L 5513 6886 L 5530 6875 L 5531 6861 L 5513 6852 L 5534 6842 L 5544 6825 L 5557 6815 L 5578 6814 L 5602 6828 L 5621 6822 L 5648 6836 L 5695 6839 L 5734 6849 L 5749 6861 L 5764 6856 L 5758 6837 L 5760 6818 L 5753 6811 L 5750 6786 L 5734 6757 L 5721 6742 L 5697 6688 L 5665 6639 L 5609 6580 L 5565 6554 L 5534 6527 L 5493 6483 L 5480 6463 L 5438 6421 L 5406 6359 L 5396 6332 L 5403 6319 L 5411 6341 L 5419 6321 L 5410 6312 L 5418 6300 L 5411 6280 L 5428 6282 L 5410 6265 L 5421 6239 L 5423 6217 L 5445 6205 L 5450 6191 L 5444 6167 L 5449 6128 L 5447 6108 L 5456 6083 L 5449 6053 L 5429 6025 L 5406 6011 L 5370 5996 L 5346 5981 L 5328 5960 L 5277 5920 L 5275 5903 L 5284 5894 L 5289 5872 L 5298 5862 L 5300 5843 L 5296 5798 L 5299 5790 L 5288 5775 L 5247 5759 L 5222 5746 L 5223 5705 L 5207 5651 L 5189 5638 L 5172 5619 L 5149 5577 L 5104 5531 L 5076 5506 L 5035 5483 L 5010 5481 L 5011 5474 L 4989 5475 L 4986 5468 L 4950 5475 L 4944 5471 L 4919 5475 L 4893 5462 L 4870 5463 L 4842 5448 L 4810 5470 L 4794 5469 L 4799 5479 L 4780 5514 L 4793 5519 L 4790 5551 L 4763 5593 L 4749 5634 L 4716 5670 L 4705 5690 L 4692 5739 L 4690 5769 L 4681 5789 L 4683 5829 L 4678 5847 L 4665 5862 L 4649 5891 L 4642 5912 L 4616 5956 L 4604 5973 L 4600 5991 L 4603 6023 L 4601 6043 L 4608 6049 L 4616 6074 L 4623 6113 L 4656 6149 L 4662 6183 L 4660 6196 L 4643 6224 L 4637 6242 L 4649 6252 L 4648 6265 L 4633 6296 L 4632 6307 L 4616 6330 L 4612 6357 L 4603 6374 L 4546 6430 L 4528 6454 L 4530 6469 L 4521 6471 L 4516 6485 L 4528 6497 L 4530 6543 L 4543 6564 L 4548 6599 L 4538 6624 L 4519 6615 L 4518 6642 L 4430 6635 L 4420 6644 L 4412 6665 L 4399 6684 L 4385 6695 L 4369 6697 L 4311 6692 L 4290 6687 L 4284 6679 L 4265 6678 L 4232 6661 L 4194 6647 L 4186 6652 L 4138 6662 L 4083 6656 L 4036 6636 L 4012 6643 L 3982 6659 L 3949 6689 L 3921 6705 L 3907 6718 L 3874 6730 L 3885 6731 L 3874 6750 L 3868 6748 L 3863 6782 L 3855 6795 L 3830 6808 L 3820 6830 L 3802 6837 L 3800 6846 L 3783 6836 L 3780 6846 L 3792 6845 L 3803 6860 L 3780 6855 L 3763 6871 L 3760 6901 L 3768 6908 L 3750 6940 L 3769 6974 L 3771 6999 L 3784 7039 L 3778 7070 L 3769 7083 L 3779 7107 L 3758 7136 L 3756 7155 L 3769 7172 L 3791 7219 L 3817 7245 L 3820 7269 L 3831 7294 L 3854 7308 L 3874 7346 L 3917 7359 L 3944 7380 L 3971 7417 L 3964 7435 L 3965 7458 L 3980 7478 L 3983 7496 L 4004 7519 L 4035 7531 L 4054 7544 L 4070 7572 L 4081 7602 L 4096 7606 L 4096 7606 M 5707 5964 L 5699 5945 L 5673 5861 L 5665 5845 L 5654 5798 L 5641 5765 L 5615 5756 L 5593 5745 L 5583 5744 L 5550 5763 L 5541 5781 L 5542 5810 L 5530 5830 L 5526 5848 L 5535 5876 L 5546 5889 L 5563 5919 L 5563 5931 L 5551 5964 L 5548 5993 L 5562 6016 L 5563 6032 L 5574 6030 L 5587 6039 L 5615 6046 L 5637 6061 L 5668 6094 L 5663 6103 L 5673 6115 L 5689 6114 L 5693 6140 L 5704 6158 L 5713 6138 L 5724 6126 L 5730 6103 L 5733 6075 L 5740 6054 L 5733 6038 L 5723 6054 L 5715 6051 L 5721 6021 L 5709 5999 L 5707 5964 L 5707 5964 Z" stroke="transparent" stroke-width="inherit" opacity="1" class="highcharts-point highcharts-null-point highcharts-color-0 highcharts-name-africa highcharts-key-af"></path><path fill="#2e2e2e" d="M 9585 9083 L 9623 9065 L 9609 9055 L 9567 9047 L 9548 9051 L 9548 9051 L 9515 9041 L 9517 9065 L 9548 9080 L 9548 9080 L 9548 9080 L 9548 9080 L 9548 9080 L 9585 9083 L 9585 9083 M 9558 8755 L 9549 8750 L 9549 8750 L 9534 8739 L 9497 8731 L 9470 8740 L 9443 8741 L 9453 8727 L 9476 8736 L 9475 8720 L 9491 8710 L 9499 8717 L 9510 8698 L 9508 8673 L 9529 8663 L 9538 8640 L 9518 8624 L 9470 8634 L 9411 8613 L 9387 8599 L 9373 8599 L 9314 8556 L 9279 8541 L 9267 8517 L 9254 8521 L 9233 8543 L 9199 8543 L 9168 8533 L 9141 8511 L 9149 8539 L 9112 8522 L 9103 8509 L 9093 8523 L 9068 8520 L 9054 8497 L 9057 8478 L 9072 8469 L 9095 8485 L 9097 8469 L 9084 8467 L 9064 8451 L 9052 8475 L 9032 8460 L 9020 8435 L 9035 8421 L 9041 8430 L 9059 8419 L 9044 8405 L 9043 8379 L 9056 8378 L 9060 8355 L 9051 8348 L 9037 8359 L 9024 8353 L 9013 8331 L 9024 8300 L 9012 8286 L 8983 8287 L 8963 8273 L 8956 8247 L 8963 8230 L 8950 8236 L 8921 8222 L 8911 8185 L 8865 8143 L 8856 8195 L 8847 8223 L 8830 8318 L 8833 8344 L 8845 8379 L 8863 8391 L 8873 8407 L 8867 8422 L 8887 8423 L 8932 8449 L 8957 8481 L 9017 8527 L 9018 8537 L 9064 8563 L 9080 8578 L 9083 8620 L 9095 8628 L 9115 8626 L 9096 8638 L 9057 8631 L 9051 8586 L 9032 8593 L 9020 8579 L 8966 8544 L 8974 8564 L 8956 8560 L 8955 8573 L 8970 8587 L 8971 8605 L 8947 8593 L 8942 8603 L 8887 8598 L 8863 8586 L 8863 8572 L 8813 8534 L 8791 8512 L 8787 8497 L 8813 8496 L 8830 8489 L 8786 8477 L 8766 8485 L 8753 8471 L 8736 8477 L 8707 8468 L 8688 8481 L 8680 8501 L 8655 8508 L 8632 8498 L 8642 8483 L 8606 8492 L 8595 8485 L 8559 8492 L 8488 8493 L 8439 8480 L 8419 8458 L 8399 8448 L 8387 8425 L 8334 8388 L 8312 8362 L 8278 8333 L 8232 8302 L 8248 8289 L 8281 8290 L 8275 8258 L 8288 8258 L 8286 8272 L 8307 8263 L 8295 8247 L 8312 8249 L 8331 8266 L 8336 8278 L 8367 8278 L 8380 8261 L 8415 8232 L 8406 8225 L 8415 8184 L 8400 8171 L 8386 8129 L 8392 8111 L 8378 8049 L 8355 8029 L 8330 7995 L 8317 7967 L 8252 7900 L 8230 7868 L 8194 7846 L 8172 7839 L 8146 7846 L 8147 7862 L 8120 7847 L 8099 7825 L 8091 7826 L 8068 7799 L 8070 7774 L 8056 7769 L 8039 7752 L 8006 7736 L 8004 7716 L 8031 7698 L 8059 7652 L 8066 7612 L 8055 7581 L 8037 7567 L 8022 7577 L 8001 7568 L 8005 7558 L 7981 7553 L 7986 7520 L 7966 7519 L 7980 7547 L 7964 7552 L 7958 7566 L 7985 7605 L 7970 7628 L 7976 7644 L 7988 7640 L 7976 7660 L 7960 7673 L 7938 7666 L 7935 7678 L 7922 7680 L 7941 7701 L 7945 7721 L 7919 7739 L 7884 7738 L 7855 7725 L 7861 7719 L 7819 7701 L 7837 7723 L 7823 7724 L 7830 7740 L 7852 7762 L 7839 7774 L 7819 7777 L 7797 7752 L 7771 7741 L 7756 7717 L 7741 7708 L 7727 7718 L 7712 7698 L 7728 7681 L 7751 7682 L 7754 7652 L 7768 7647 L 7807 7673 L 7831 7657 L 7847 7662 L 7864 7656 L 7853 7637 L 7845 7642 L 7807 7624 L 7805 7614 L 7774 7595 L 7761 7577 L 7774 7561 L 7792 7553 L 7811 7510 L 7810 7499 L 7838 7476 L 7843 7462 L 7835 7454 L 7843 7442 L 7813 7430 L 7806 7420 L 7825 7423 L 7834 7413 L 7849 7416 L 7856 7435 L 7855 7408 L 7844 7413 L 7842 7383 L 7831 7390 L 7833 7360 L 7813 7349 L 7795 7316 L 7771 7309 L 7772 7276 L 7764 7261 L 7739 7237 L 7719 7226 L 7714 7216 L 7694 7213 L 7682 7191 L 7662 7185 L 7631 7187 L 7623 7176 L 7605 7168 L 7601 7185 L 7594 7166 L 7581 7168 L 7573 7149 L 7562 7157 L 7549 7150 L 7511 7142 L 7498 7131 L 7506 7115 L 7488 7108 L 7481 7129 L 7483 7146 L 7445 7158 L 7432 7144 L 7413 7140 L 7421 7135 L 7388 7117 L 7390 7108 L 7374 7101 L 7362 7070 L 7376 7049 L 7386 7044 L 7392 7024 L 7429 6988 L 7438 6987 L 7454 6962 L 7470 6917 L 7468 6902 L 7475 6880 L 7467 6880 L 7468 6853 L 7462 6842 L 7410 6813 L 7399 6813 L 7387 6788 L 7359 6776 L 7346 6761 L 7337 6767 L 7340 6797 L 7321 6819 L 7294 6820 L 7277 6862 L 7264 6867 L 7250 6881 L 7221 6882 L 7225 6905 L 7198 6903 L 7197 6867 L 7192 6860 L 7172 6806 L 7174 6779 L 7192 6781 L 7195 6762 L 7204 6752 L 7202 6729 L 7226 6709 L 7242 6709 L 7288 6666 L 7298 6649 L 7295 6618 L 7297 6595 L 7307 6585 L 7320 6588 L 7313 6577 L 7323 6551 L 7300 6546 L 7295 6554 L 7234 6592 L 7235 6604 L 7218 6622 L 7213 6651 L 7207 6657 L 7207 6684 L 7200 6697 L 7185 6701 L 7189 6717 L 7164 6744 L 7153 6746 L 7147 6736 L 7145 6777 L 7154 6801 L 7143 6804 L 7145 6826 L 7154 6823 L 7160 6839 L 7149 6851 L 7127 6857 L 7154 6855 L 7158 6868 L 7141 6869 L 7146 6893 L 7155 6896 L 7145 6912 L 7132 6947 L 7129 6977 L 7105 7021 L 7097 6996 L 7075 6987 L 7062 6972 L 7026 6981 L 7038 7027 L 7024 7065 L 7011 7067 L 7005 7080 L 7018 7083 L 7002 7104 L 6991 7096 L 6957 7146 L 6961 7156 L 6945 7186 L 6935 7177 L 6921 7186 L 6927 7167 L 6918 7158 L 6905 7162 L 6880 7151 L 6851 7148 L 6843 7157 L 6820 7148 L 6809 7137 L 6814 7121 L 6796 7100 L 6768 7091 L 6751 7077 L 6728 7048 L 6703 7028 L 6676 7011 L 6676 6998 L 6645 6990 L 6637 6973 L 6616 6970 L 6610 6951 L 6618 6901 L 6613 6875 L 6604 6862 L 6604 6810 L 6590 6811 L 6576 6786 L 6580 6782 L 6556 6771 L 6551 6754 L 6535 6745 L 6520 6754 L 6507 6769 L 6498 6801 L 6477 6852 L 6467 6862 L 6456 6886 L 6449 6917 L 6439 6941 L 6415 6982 L 6402 7043 L 6392 7096 L 6399 7116 L 6388 7153 L 6389 7167 L 6377 7161 L 6382 7151 L 6376 7138 L 6343 7123 L 6316 7136 L 6283 7171 L 6319 7179 L 6326 7191 L 6306 7185 L 6273 7199 L 6265 7211 L 6236 7226 L 6230 7244 L 6216 7249 L 6209 7273 L 6187 7266 L 6153 7263 L 6125 7266 L 6123 7261 L 6093 7263 L 6070 7256 L 5985 7272 L 5966 7272 L 5941 7279 L 5932 7313 L 5926 7322 L 5913 7312 L 5893 7317 L 5859 7294 L 5852 7308 L 5842 7301 L 5826 7317 L 5802 7330 L 5797 7338 L 5766 7349 L 5750 7385 L 5735 7388 L 5745 7395 L 5728 7419 L 5714 7414 L 5695 7425 L 5694 7415 L 5673 7413 L 5678 7395 L 5666 7399 L 5672 7381 L 5706 7324 L 5724 7313 L 5732 7291 L 5744 7292 L 5742 7279 L 5763 7291 L 5772 7282 L 5772 7253 L 5763 7233 L 5777 7233 L 5779 7224 L 5801 7228 L 5839 7226 L 5875 7255 L 5903 7282 L 5913 7298 L 5913 7254 L 5920 7239 L 5936 7222 L 5984 7209 L 6014 7168 L 6000 7145 L 5981 7126 L 5989 7117 L 5980 7112 L 5964 7118 L 5952 7093 L 5956 7071 L 5929 7065 L 5919 7045 L 5908 7039 L 5904 7025 L 5892 7037 L 5879 7026 L 5874 7010 L 5844 7010 L 5802 6994 L 5789 6980 L 5791 6969 L 5766 6957 L 5742 6952 L 5699 6935 L 5687 6922 L 5667 6922 L 5649 6910 L 5629 6903 L 5598 6901 L 5575 6883 L 5548 6879 L 5527 6897 L 5523 6923 L 5511 6921 L 5521 6936 L 5511 6972 L 5515 6982 L 5506 7006 L 5490 7000 L 5486 7007 L 5500 7015 L 5499 7024 L 5482 7038 L 5467 7061 L 5459 7086 L 5447 7100 L 5421 7115 L 5405 7141 L 5401 7160 L 5405 7179 L 5386 7217 L 5359 7232 L 5348 7250 L 5344 7267 L 5329 7274 L 5334 7287 L 5301 7332 L 5291 7351 L 5274 7352 L 5284 7398 L 5281 7396 L 5279 7404 L 5261 7455 L 5261 7455 L 5276 7476 L 5283 7504 L 5313 7560 L 5313 7610 L 5308 7620 L 5320 7629 L 5315 7640 L 5295 7627 L 5271 7635 L 5246 7614 L 5220 7610 L 5197 7627 L 5158 7639 L 5149 7617 L 5128 7613 L 5112 7621 L 5106 7634 L 5087 7638 L 5088 7644 L 5057 7641 L 5067 7652 L 5055 7655 L 5056 7676 L 5027 7686 L 5047 7691 L 5041 7701 L 5050 7708 L 5038 7720 L 5046 7731 L 5022 7727 L 5013 7748 L 5024 7743 L 5039 7756 L 5041 7759 L 5043 7759 L 5113 7760 L 5119 7771 L 5115 7788 L 5174 7783 L 5204 7805 L 5235 7815 L 5276 7813 L 5283 7818 L 5300 7802 L 5313 7805 L 5327 7788 L 5332 7793 L 5360 7781 L 5383 7777 L 5415 7784 L 5435 7777 L 5473 7793 L 5484 7808 L 5476 7837 L 5457 7852 L 5431 7864 L 5431 7864 L 5431 7864 L 5433 7869 L 5451 7869 L 5477 7858 L 5503 7858 L 5543 7841 L 5547 7834 L 5575 7842 L 5599 7833 L 5597 7823 L 5625 7807 L 5645 7790 L 5663 7787 L 5684 7809 L 5714 7767 L 5736 7761 L 5709 7748 L 5702 7711 L 5692 7706 L 5695 7674 L 5700 7664 L 5730 7656 L 5758 7634 L 5782 7628 L 5828 7639 L 5844 7637 L 5838 7668 L 5843 7707 L 5831 7722 L 5831 7743 L 5806 7747 L 5812 7779 L 5835 7767 L 5853 7770 L 5864 7784 L 5846 7796 L 5840 7818 L 5819 7818 L 5801 7798 L 5796 7818 L 5806 7841 L 5783 7844 L 5765 7866 L 5751 7893 L 5733 7900 L 5727 7924 L 5745 7920 L 5767 7934 L 5803 7937 L 5817 7959 L 5820 7985 L 5798 7995 L 5792 7988 L 5761 8000 L 5745 7994 L 5746 8015 L 5759 8055 L 5769 8073 L 5772 8100 L 5785 8120 L 5821 8152 L 5846 8157 L 5885 8155 L 5918 8149 L 5959 8152 L 6005 8140 L 6050 8141 L 6059 8158 L 6023 8180 L 6015 8217 L 6017 8240 L 6033 8252 L 6028 8269 L 6000 8294 L 6003 8319 L 6031 8337 L 6041 8382 L 6054 8381 L 6076 8442 L 6103 8501 L 6125 8567 L 6137 8621 L 6145 8693 L 6146 8748 L 6201 8819 L 6223 8855 L 6249 8921 L 6264 8905 L 6287 8943 L 6270 8945 L 6256 8972 L 6229 8982 L 6219 8978 L 6235 9037 L 6210 9035 L 6224 9068 L 6254 9080 L 6269 9097 L 6284 9145 L 6302 9155 L 6360 9157 L 6397 9146 L 6398 9121 L 6379 9085 L 6368 9081 L 6393 9058 L 6396 9021 L 6386 9012 L 6390 8943 L 6421 8921 L 6405 8906 L 6407 8882 L 6391 8876 L 6380 8853 L 6359 8839 L 6360 8828 L 6334 8821 L 6309 8836 L 6284 8836 L 6296 8821 L 6298 8835 L 6317 8830 L 6311 8816 L 6373 8807 L 6387 8826 L 6417 8836 L 6429 8860 L 6453 8879 L 6452 8904 L 6441 8915 L 6445 8930 L 6502 8946 L 6529 8922 L 6523 8883 L 6551 8872 L 6578 8875 L 6534 8883 L 6536 8902 L 6554 8909 L 6540 8940 L 6513 8953 L 6476 8960 L 6464 8952 L 6424 8956 L 6429 8968 L 6417 8985 L 6424 9008 L 6441 9026 L 6419 9066 L 6403 9076 L 6418 9096 L 6459 9112 L 6462 9142 L 6434 9163 L 6457 9167 L 6482 9136 L 6482 9120 L 6469 9104 L 6477 9081 L 6468 9074 L 6491 9065 L 6543 9059 L 6563 9046 L 6558 9066 L 6500 9082 L 6490 9101 L 6518 9109 L 6537 9097 L 6553 9100 L 6543 9123 L 6517 9122 L 6538 9141 L 6561 9133 L 6567 9154 L 6583 9167 L 6595 9158 L 6590 9128 L 6659 9090 L 6692 9094 L 6706 9089 L 6698 9074 L 6676 9067 L 6679 9040 L 6693 9052 L 6710 9038 L 6702 9019 L 6719 9024 L 6701 9065 L 6715 9085 L 6707 9097 L 6672 9111 L 6672 9122 L 6644 9126 L 6629 9136 L 6633 9157 L 6616 9179 L 6633 9194 L 6666 9199 L 6711 9199 L 6702 9228 L 6736 9220 L 6737 9202 L 6773 9209 L 6821 9211 L 6792 9243 L 6760 9250 L 6759 9263 L 6777 9256 L 6815 9277 L 6817 9269 L 6877 9304 L 6901 9311 L 7007 9328 L 6991 9341 L 7011 9345 L 7016 9373 L 7031 9372 L 7032 9350 L 7073 9355 L 7075 9375 L 7045 9376 L 7057 9398 L 7094 9411 L 7069 9395 L 7067 9378 L 7092 9380 L 7087 9356 L 7109 9351 L 7076 9346 L 7079 9337 L 7159 9349 L 7189 9340 L 7163 9369 L 7221 9370 L 7233 9384 L 7223 9397 L 7260 9423 L 7292 9440 L 7336 9442 L 7369 9434 L 7385 9419 L 7381 9402 L 7416 9392 L 7386 9368 L 7427 9370 L 7430 9382 L 7492 9379 L 7524 9383 L 7534 9374 L 7565 9374 L 7567 9350 L 7591 9359 L 7595 9329 L 7605 9328 L 7597 9294 L 7489 9238 L 7434 9198 L 7407 9197 L 7392 9179 L 7380 9180 L 7358 9149 L 7379 9161 L 7383 9173 L 7424 9171 L 7517 9201 L 7477 9206 L 7491 9220 L 7560 9202 L 7582 9213 L 7593 9191 L 7650 9202 L 7739 9195 L 7739 9174 L 7778 9163 L 7872 9156 L 7889 9174 L 7880 9184 L 7890 9203 L 7902 9197 L 7920 9214 L 7947 9187 L 7968 9193 L 8021 9189 L 8019 9182 L 8062 9163 L 8053 9133 L 8065 9120 L 8047 9110 L 8016 9130 L 8072 9060 L 8105 9040 L 8124 9046 L 8153 9100 L 8186 9075 L 8211 9072 L 8255 9086 L 8316 9064 L 8311 9074 L 8285 9081 L 8336 9087 L 8349 9074 L 8374 9077 L 8360 9103 L 8369 9116 L 8349 9115 L 8359 9134 L 8406 9139 L 8390 9156 L 8419 9149 L 8532 9137 L 8573 9124 L 8518 9130 L 8522 9121 L 8577 9123 L 8549 9098 L 8526 9098 L 8530 9088 L 8554 9096 L 8585 9124 L 8620 9123 L 8656 9114 L 8669 9102 L 8648 9101 L 8638 9090 L 8666 9088 L 8663 9077 L 8686 9080 L 8715 9068 L 8732 9045 L 8775 9044 L 8842 9057 L 8890 9056 L 8918 9050 L 8952 9034 L 8964 9012 L 8952 8993 L 8993 8969 L 9017 8980 L 9080 8987 L 9103 8976 L 9165 8972 L 9191 8987 L 9205 8959 L 9235 8951 L 9244 8935 L 9282 8946 L 9272 8977 L 9273 9005 L 9374 8992 L 9418 8991 L 9501 8972 L 9549 8946 L 9549 8946 L 9582 8934 L 9586 8923 L 9616 8913 L 9651 8890 L 9687 8879 L 9690 8862 L 9712 8822 L 9724 8819 L 9724 8844 L 9708 8849 L 9792 8843 L 9802 8829 L 9838 8803 L 9851 8803 L 9827 8790 L 9826 8778 L 9778 8773 L 9781 8750 L 9770 8740 L 9777 8720 L 9736 8716 L 9703 8739 L 9683 8737 L 9670 8748 L 9668 8767 L 9637 8777 L 9624 8769 L 9591 8773 L 9578 8799 L 9555 8801 L 9556 8786 L 9569 8778 L 9558 8755 L 9558 8755 M 7654 6255 L 7645 6250 L 7621 6272 L 7644 6273 L 7659 6263 L 7654 6255 L 7654 6255 M 8334 6269 L 8340 6262 L 8303 6262 L 8315 6286 L 8338 6293 L 8346 6287 L 8334 6269 L 8334 6269 M 8124 6310 L 8135 6301 L 8113 6270 L 8104 6289 L 8119 6291 L 8124 6310 L 8124 6310 M 7618 6302 L 7595 6297 L 7571 6299 L 7574 6306 L 7608 6307 L 7618 6302 L 7618 6302 M 7859 6350 L 7843 6349 L 7838 6355 L 7855 6361 L 7855 6370 L 7870 6378 L 7878 6375 L 7871 6357 L 7892 6352 L 7859 6350 L 7859 6350 M 7997 6397 L 7983 6396 L 7966 6403 L 7961 6414 L 7982 6419 L 7998 6410 L 7997 6397 L 7997 6397 M 7417 6425 L 7422 6434 L 7440 6428 L 7438 6417 L 7421 6414 L 7417 6425 L 7417 6425 M 7944 6456 L 7971 6455 L 7957 6448 L 7927 6453 L 7913 6450 L 7914 6460 L 7944 6456 L 7944 6456 M 7403 6424 L 7394 6418 L 7372 6426 L 7367 6445 L 7348 6452 L 7361 6464 L 7374 6462 L 7383 6437 L 7397 6434 L 7391 6423 L 7403 6424 L 7403 6424 M 7184 6450 L 7212 6416 L 7197 6426 L 7183 6446 L 7164 6460 L 7155 6474 L 7165 6481 L 7174 6457 L 7184 6450 L 7184 6450 M 7998 6495 L 8009 6496 L 8017 6486 L 8009 6470 L 8024 6463 L 8006 6458 L 7999 6468 L 8007 6474 L 7998 6495 L 7998 6495 M 7098 6569 L 7070 6590 L 7076 6594 L 7098 6570 L 7118 6572 L 7122 6552 L 7136 6537 L 7129 6525 L 7110 6550 L 7119 6553 L 7118 6568 L 7098 6569 L 7098 6569 M 8210 6325 L 8218 6319 L 8202 6306 L 8198 6310 L 8202 6340 L 8211 6349 L 8219 6343 L 8217 6324 L 8210 6325 L 8210 6325 M 7684 6248 L 7667 6248 L 7668 6261 L 7678 6268 L 7692 6259 L 7709 6260 L 7711 6269 L 7729 6271 L 7755 6265 L 7761 6256 L 7739 6249 L 7697 6242 L 7684 6248 L 7684 6248 M 8015 6420 L 8025 6425 L 8053 6422 L 8062 6427 L 8096 6417 L 8114 6392 L 8065 6412 L 8064 6407 L 8040 6408 L 8025 6419 L 8018 6411 L 8005 6412 L 8015 6420 L 8015 6420 M 8829 8140 L 8840 8135 L 8855 8142 L 8840 8118 L 8810 8094 L 8809 8084 L 8786 8061 L 8803 8085 L 8796 8100 L 8821 8111 L 8820 8120 L 8835 8125 L 8829 8140 L 8829 8140 M 8285 8303 L 8302 8315 L 8314 8298 L 8306 8281 L 8299 8301 L 8285 8303 L 8285 8303 M 7832 6701 L 7845 6706 L 7842 6685 L 7818 6678 L 7801 6695 L 7826 6684 L 7837 6686 L 7832 6701 L 7832 6701 M 9238 8986 L 9222 8976 L 9189 8990 L 9204 9000 L 9238 8992 L 9238 8986 L 9238 8986 M 7895 6835 L 7904 6828 L 7901 6811 L 7892 6803 L 7882 6782 L 7892 6775 L 7874 6773 L 7855 6797 L 7869 6805 L 7873 6829 L 7890 6826 L 7885 6803 L 7900 6830 L 7895 6835 L 7895 6835 M 6348 9182 L 6363 9175 L 6310 9164 L 6313 9184 L 6342 9191 L 6348 9182 L 6348 9182 M 7793 6911 L 7820 6904 L 7830 6880 L 7821 6867 L 7793 6911 L 7793 6911 M 7590 9239 L 7572 9224 L 7534 9239 L 7550 9250 L 7588 9247 L 7590 9239 L 7590 9239 M 7841 6870 L 7853 6876 L 7842 6859 L 7861 6847 L 7878 6845 L 7877 6837 L 7861 6822 L 7842 6815 L 7847 6851 L 7839 6854 L 7841 6870 L 7841 6870 M 7772 7210 L 7785 7207 L 7816 7256 L 7832 7263 L 7844 7255 L 7838 7249 L 7826 7197 L 7813 7178 L 7809 7159 L 7792 7181 L 7788 7204 L 7772 7210 L 7772 7210 M 6936 9561 L 6926 9563 L 6935 9595 L 6955 9596 L 7012 9587 L 6979 9570 L 6964 9579 L 6934 9582 L 6936 9561 L 6936 9561 M 8389 9214 L 8379 9232 L 8399 9235 L 8406 9212 L 8433 9214 L 8473 9193 L 8478 9175 L 8466 9172 L 8396 9185 L 8372 9180 L 8370 9189 L 8393 9196 L 8389 9214 L 8389 9214 M 8581 9277 L 8551 9291 L 8561 9312 L 8573 9299 L 8620 9302 L 8626 9290 L 8641 9293 L 8692 9285 L 8685 9271 L 8644 9263 L 8613 9266 L 8581 9277 L 8581 9277 M 6605 6792 L 6612 6796 L 6630 6783 L 6648 6757 L 6663 6723 L 6658 6698 L 6626 6682 L 6614 6685 L 6604 6708 L 6600 6743 L 6610 6784 L 6605 6792 L 6605 6792 M 8216 7552 L 8219 7537 L 8202 7518 L 8194 7526 L 8175 7521 L 8166 7504 L 8154 7502 L 8149 7525 L 8165 7547 L 8182 7541 L 8188 7555 L 8216 7552 L 8216 7552 M 6990 6910 L 6989 6893 L 6994 6866 L 6979 6842 L 6978 6853 L 6990 6910 L 6990 6910 M 7510 7082 L 7504 7064 L 7478 7045 L 7452 7056 L 7450 7079 L 7482 7101 L 7518 7101 L 7520 7091 L 7510 7082 L 7510 7082 M 7785 6234 L 7809 6213 L 7798 6206 L 7784 6216 L 7754 6228 L 7760 6234 L 7785 6234 L 7785 6234 M 8402 6433 L 8402 6307 L 8402 6242 L 8371 6271 L 8339 6270 L 8346 6287 L 8331 6305 L 8316 6350 L 8254 6376 L 8233 6378 L 8206 6396 L 8206 6391 L 8184 6404 L 8175 6390 L 8166 6388 L 8154 6418 L 8137 6423 L 8144 6430 L 8159 6426 L 8168 6436 L 8191 6431 L 8196 6438 L 8176 6444 L 8158 6441 L 8140 6447 L 8132 6464 L 8107 6466 L 8092 6483 L 8078 6474 L 8092 6455 L 8086 6449 L 8070 6454 L 8079 6457 L 8071 6474 L 8092 6485 L 8092 6493 L 8075 6494 L 8087 6506 L 8103 6508 L 8117 6504 L 8115 6497 L 8098 6493 L 8103 6483 L 8115 6485 L 8158 6498 L 8179 6487 L 8196 6487 L 8205 6469 L 8199 6459 L 8214 6441 L 8217 6422 L 8225 6411 L 8240 6410 L 8263 6434 L 8263 6453 L 8229 6464 L 8252 6460 L 8251 6488 L 8261 6477 L 8261 6460 L 8289 6456 L 8308 6465 L 8369 6439 L 8378 6441 L 8402 6433 L 8402 6433 M 5246 7575 L 5244 7570 L 5226 7564 L 5221 7566 L 5219 7564 L 5205 7579 L 5222 7581 L 5223 7589 L 5238 7587 L 5272 7597 L 5253 7585 L 5252 7578 L 5252 7578 L 5252 7578 L 5252 7578 L 5252 7578 L 5248 7577 L 5246 7577 L 5246 7577 L 5246 7576 L 5246 7575 L 5246 7575 M 5249 7575 L 5249 7575 L 5249 7575 L 5249 7575 L 5249 7575 M 5252 7574 L 5249 7577 L 5252 7578 L 5252 7578 L 5252 7578 L 5252 7574 L 5252 7574 M 7328 6515 L 7326 6517 L 7325 6523 L 7325 6523 L 7328 6515 L 7328 6515 L 7328 6515 L 7328 6515 M 5248 7576 L 5247 7576 L 5248 7576 L 5248 7576 L 5248 7576 L 5248 7576 L 5248 7576 L 5248 7576 M 5252 7578 L 5252 7578 L 5252 7578 L 5252 7578 L 5252 7578 L 5252 7578 M 5248 7575 L 5249 7575 L 5249 7575 L 5249 7575 L 5249 7575 L 5249 7575 L 5248 7575 L 5248 7575 M 7749 6532 L 7720 6532 L 7710 6512 L 7709 6493 L 7697 6473 L 7678 6457 L 7685 6444 L 7670 6421 L 7680 6409 L 7671 6391 L 7666 6403 L 7627 6387 L 7623 6407 L 7597 6408 L 7580 6423 L 7568 6409 L 7558 6412 L 7544 6405 L 7542 6426 L 7510 6419 L 7498 6421 L 7488 6476 L 7469 6473 L 7483 6481 L 7469 6484 L 7462 6501 L 7470 6509 L 7459 6519 L 7457 6533 L 7464 6554 L 7480 6569 L 7488 6558 L 7520 6554 L 7529 6590 L 7579 6601 L 7607 6634 L 7608 6643 L 7624 6646 L 7655 6673 L 7663 6671 L 7670 6688 L 7682 6699 L 7693 6720 L 7705 6703 L 7718 6696 L 7719 6681 L 7726 6686 L 7754 6666 L 7761 6668 L 7768 6652 L 7790 6665 L 7769 6645 L 7760 6658 L 7730 6651 L 7748 6639 L 7707 6630 L 7721 6613 L 7707 6602 L 7715 6599 L 7729 6575 L 7722 6564 L 7755 6537 L 7749 6532 L 7749 6532 M 7270 6542 L 7297 6535 L 7295 6524 L 7307 6516 L 7295 6488 L 7309 6478 L 7325 6478 L 7330 6454 L 7340 6442 L 7362 6438 L 7375 6413 L 7371 6397 L 7366 6338 L 7353 6349 L 7350 6340 L 7335 6335 L 7323 6344 L 7305 6364 L 7264 6392 L 7262 6402 L 7245 6414 L 7229 6433 L 7208 6472 L 7205 6485 L 7189 6508 L 7171 6517 L 7170 6527 L 7153 6565 L 7128 6579 L 7126 6592 L 7101 6618 L 7091 6620 L 7062 6650 L 7051 6674 L 7057 6680 L 7082 6663 L 7123 6662 L 7146 6638 L 7147 6628 L 7189 6602 L 7213 6572 L 7227 6576 L 7245 6571 L 7243 6557 L 7270 6552 L 7270 6542 L 7270 6542 M 7834 6264 L 7852 6256 L 7866 6264 L 7896 6269 L 7903 6262 L 7910 6269 L 7934 6270 L 7935 6264 L 7907 6259 L 7896 6265 L 7889 6258 L 7878 6262 L 7837 6248 L 7782 6249 L 7766 6253 L 7791 6266 L 7813 6264 L 7829 6257 L 7834 6264 L 7834 6264 M 7374 6337 L 7402 6331 L 7404 6336 L 7434 6324 L 7442 6326 L 7449 6311 L 7504 6305 L 7518 6321 L 7551 6307 L 7567 6307 L 7572 6288 L 7588 6281 L 7609 6286 L 7622 6279 L 7619 6262 L 7626 6252 L 7590 6261 L 7585 6266 L 7569 6261 L 7543 6267 L 7540 6264 L 7505 6271 L 7472 6283 L 7441 6280 L 7414 6289 L 7388 6292 L 7389 6304 L 7357 6309 L 7368 6320 L 7374 6337 L 7374 6337 M 7833 6505 L 7850 6486 L 7886 6486 L 7879 6475 L 7887 6459 L 7869 6462 L 7867 6482 L 7854 6465 L 7834 6453 L 7823 6457 L 7853 6423 L 7849 6405 L 7870 6386 L 7875 6404 L 7880 6389 L 7866 6378 L 7847 6376 L 7843 6367 L 7828 6372 L 7833 6389 L 7811 6405 L 7816 6428 L 7807 6432 L 7791 6422 L 7796 6415 L 7798 6373 L 7794 6347 L 7772 6343 L 7766 6352 L 7774 6382 L 7764 6408 L 7753 6404 L 7749 6425 L 7765 6451 L 7765 6473 L 7777 6490 L 7778 6516 L 7786 6530 L 7801 6531 L 7811 6548 L 7828 6541 L 7897 6533 L 7920 6544 L 7918 6548 L 7942 6569 L 7929 6537 L 7912 6520 L 7880 6518 L 7875 6524 L 7838 6521 L 7796 6523 L 7785 6502 L 7787 6489 L 7805 6468 L 7816 6467 L 7833 6485 L 7833 6505 L 7833 6505 M 8004 6507 L 8000 6519 L 8008 6560 L 8024 6579 L 8040 6580 L 8028 6568 L 8024 6577 L 8016 6562 L 8021 6554 L 8009 6538 L 8014 6532 L 8033 6554 L 8041 6554 L 8041 6540 L 8029 6535 L 8045 6516 L 8019 6523 L 8017 6508 L 8031 6478 L 8004 6507 L 8004 6507 M 7913 6851 L 7921 6840 L 7927 6847 L 7929 6854 L 7910 6877 L 7937 6878 L 7946 6868 L 7948 6839 L 7932 6840 L 7939 6805 L 7920 6806 L 7911 6790 L 7898 6791 L 7908 6806 L 7924 6813 L 7921 6831 L 7915 6823 L 7913 6851 L 7913 6851 M 7904 6697 L 7903 6717 L 7910 6725 L 7894 6737 L 7867 6722 L 7867 6735 L 7859 6734 L 7847 6710 L 7842 6713 L 7852 6743 L 7871 6747 L 7875 6758 L 7895 6761 L 7899 6747 L 7909 6749 L 7914 6761 L 7924 6758 L 7925 6775 L 7935 6767 L 7947 6773 L 7943 6792 L 7952 6824 L 7953 6798 L 7965 6797 L 7959 6787 L 7975 6750 L 7979 6722 L 7969 6707 L 7967 6693 L 7955 6724 L 7947 6714 L 7951 6683 L 7942 6666 L 7937 6678 L 7910 6690 L 7904 6697 L 7904 6697 M 7770 6844 L 7778 6846 L 7783 6869 L 7795 6861 L 7772 6839 L 7777 6817 L 7749 6794 L 7737 6778 L 7706 6756 L 7716 6774 L 7726 6779 L 7750 6807 L 7763 6817 L 7762 6830 L 7770 6844 L 7770 6844 M 7903 6910 L 7906 6922 L 7915 6917 L 7898 6895 L 7896 6866 L 7907 6863 L 7904 6853 L 7885 6867 L 7878 6859 L 7882 6891 L 7878 6904 L 7859 6919 L 7861 6896 L 7853 6908 L 7843 6897 L 7847 6913 L 7835 6919 L 7817 6907 L 7802 6926 L 7813 6935 L 7801 6945 L 7802 6935 L 7787 6944 L 7778 6978 L 7779 6991 L 7793 6981 L 7794 7027 L 7803 7057 L 7822 7067 L 7824 7082 L 7840 7087 L 7839 7066 L 7817 7060 L 7843 7049 L 7850 7056 L 7848 7029 L 7859 7013 L 7850 6990 L 7831 6978 L 7825 6959 L 7835 6942 L 7839 6952 L 7855 6942 L 7857 6931 L 7875 6920 L 7894 6918 L 7903 6910 L 7903 6910 M 8471 8214 L 8466 8181 L 8477 8156 L 8484 8120 L 8499 8080 L 8469 8085 L 8448 8033 L 8448 8024 L 8462 8005 L 8473 7978 L 8445 7982 L 8434 7955 L 8426 7981 L 8433 7997 L 8431 8018 L 8436 8045 L 8428 8062 L 8436 8096 L 8433 8129 L 8440 8150 L 8423 8176 L 8422 8201 L 8430 8226 L 8425 8240 L 8441 8240 L 8455 8254 L 8442 8277 L 8453 8283 L 8461 8271 L 8458 8258 L 8470 8232 L 8471 8214 L 8471 8214 M 8531 9308 L 8500 9280 L 8458 9286 L 8446 9299 L 8461 9319 L 8442 9320 L 8434 9308 L 8450 9283 L 8482 9274 L 8442 9267 L 8427 9277 L 8375 9267 L 8358 9274 L 8344 9257 L 8311 9268 L 8281 9299 L 8296 9298 L 8289 9316 L 8306 9324 L 8297 9334 L 8340 9350 L 8367 9331 L 8402 9314 L 8403 9340 L 8413 9348 L 8448 9329 L 8489 9327 L 8531 9308 L 8531 9308 M 7264 9554 L 7283 9544 L 7281 9529 L 7308 9536 L 7329 9517 L 7349 9513 L 7354 9494 L 7337 9483 L 7306 9478 L 7232 9473 L 7197 9459 L 7175 9464 L 7228 9535 L 7264 9554 L 7264 9554 M 6968 9551 L 7025 9577 L 7049 9599 L 7126 9604 L 7149 9584 L 7154 9596 L 7173 9596 L 7199 9571 L 7184 9544 L 7169 9544 L 7195 9524 L 7179 9514 L 7131 9513 L 7102 9525 L 7050 9528 L 7031 9541 L 7016 9566 L 6984 9551 L 6980 9532 L 6968 9551 L 6968 9551 M 7107 9654 L 7136 9640 L 7114 9636 L 7114 9608 L 7035 9601 L 7027 9595 L 7011 9592 L 6947 9612 L 6959 9624 L 6983 9627 L 6998 9647 L 6976 9645 L 6992 9660 L 7046 9671 L 7072 9681 L 7107 9654 L 7107 9654 M 7958 6260 L 7977 6260 L 7997 6271 L 8011 6270 L 7991 6254 L 7950 6239 L 7934 6231 L 7915 6211 L 7887 6205 L 7885 6195 L 7868 6188 L 7884 6203 L 7893 6227 L 7929 6246 L 7950 6270 L 7958 6260 L 7958 6260 M 8434 7729 L 8427 7711 L 8416 7699 L 8418 7686 L 8405 7689 L 8400 7673 L 8404 7655 L 8389 7618 L 8399 7600 L 8387 7594 L 8384 7582 L 8371 7573 L 8366 7597 L 8354 7569 L 8339 7562 L 8338 7580 L 8320 7566 L 8282 7560 L 8282 7552 L 8262 7545 L 8254 7529 L 8239 7528 L 8228 7539 L 8233 7564 L 8208 7567 L 8173 7552 L 8154 7549 L 8145 7535 L 8130 7544 L 8116 7540 L 8104 7546 L 8107 7556 L 8120 7557 L 8170 7596 L 8179 7591 L 8212 7598 L 8250 7593 L 8254 7608 L 8278 7638 L 8277 7655 L 8293 7661 L 8284 7638 L 8321 7649 L 8337 7664 L 8328 7673 L 8329 7687 L 8339 7671 L 8356 7682 L 8374 7728 L 8366 7740 L 8374 7757 L 8369 7765 L 8382 7775 L 8383 7789 L 8393 7776 L 8406 7775 L 8407 7789 L 8397 7784 L 8400 7799 L 8410 7792 L 8415 7768 L 8424 7758 L 8434 7729 L 8434 7729 M 8089 7465 L 8073 7472 L 8084 7503 L 8062 7521 L 8069 7534 L 8054 7546 L 8072 7537 L 8079 7524 L 8093 7538 L 8108 7541 L 8110 7531 L 8130 7529 L 8123 7519 L 8135 7518 L 8138 7507 L 8128 7495 L 8118 7457 L 8106 7448 L 8107 7425 L 8092 7420 L 8102 7456 L 8085 7453 L 8089 7465 L 8089 7465 M 8626 7940 L 8632 7934 L 8599 7922 L 8578 7901 L 8575 7881 L 8535 7856 L 8512 7847 L 8496 7849 L 8480 7838 L 8468 7812 L 8424 7837 L 8402 7827 L 8394 7835 L 8381 7824 L 8408 7807 L 8394 7809 L 8379 7794 L 8354 7797 L 8356 7817 L 8367 7823 L 8369 7838 L 8388 7851 L 8387 7863 L 8407 7855 L 8415 7863 L 8412 7876 L 8421 7884 L 8424 7920 L 8410 7926 L 8431 7941 L 8461 7907 L 8473 7897 L 8515 7884 L 8530 7898 L 8522 7877 L 8532 7880 L 8531 7861 L 8538 7861 L 8567 7879 L 8575 7904 L 8605 7930 L 8626 7940 L 8626 7940 M 7325 6523 L 7320 6532 L 7309 6538 L 7331 6544 L 7339 6537 L 7322 6534 L 7325 6523 L 7325 6523 L 7325 6523 M 7328 6515 L 7344 6500 L 7329 6500 L 7331 6509 L 7328 6515 L 7328 6515 L 7328 6515 L 7328 6515 Z" stroke="transparent" stroke-width="inherit" opacity="1" class="highcharts-point highcharts-null-point highcharts-color-0 highcharts-name-asia highcharts-key-as"></path><path fill="#2e2e2e" d="M 3469 9081 L 3498 9077 L 3503 9062 L 3469 9049 L 3499 9056 L 3511 9033 L 3486 9027 L 3430 9021 L 3456 9043 L 3441 9038 L 3434 9045 L 3425 9018 L 3469 9024 L 3434 9003 L 3453 8998 L 3465 9012 L 3481 9009 L 3511 9020 L 3562 9004 L 3597 9005 L 3572 8980 L 3546 8974 L 3531 8961 L 3482 8931 L 3455 8923 L 3431 8924 L 3391 8905 L 3343 8897 L 3323 8900 L 3302 8926 L 3314 8898 L 3278 8872 L 3272 8853 L 3236 8814 L 3211 8805 L 3162 8773 L 3138 8781 L 3143 8798 L 3160 8813 L 3137 8808 L 3138 8793 L 3122 8780 L 3075 8770 L 3094 8763 L 3071 8748 L 3059 8754 L 3057 8711 L 3063 8687 L 3042 8672 L 3046 8664 L 3008 8634 L 3015 8598 L 3003 8596 L 3003 8571 L 2985 8572 L 3001 8557 L 2995 8545 L 2978 8540 L 2986 8519 L 2963 8509 L 2954 8522 L 2932 8520 L 2920 8527 L 2923 8539 L 2896 8551 L 2852 8550 L 2836 8556 L 2837 8571 L 2817 8574 L 2803 8597 L 2805 8614 L 2775 8630 L 2780 8651 L 2755 8661 L 2739 8685 L 2742 8704 L 2723 8706 L 2720 8738 L 2725 8747 L 2700 8779 L 2677 8802 L 2677 8820 L 2690 8832 L 2717 8841 L 2677 8841 L 2668 8849 L 2721 8863 L 2670 8857 L 2676 8886 L 2692 8890 L 2692 8905 L 2728 8897 L 2742 8906 L 2713 8904 L 2708 8913 L 2686 8909 L 2695 8928 L 2721 8931 L 2727 8922 L 2751 8924 L 2753 8953 L 2779 8948 L 2771 8962 L 2758 8955 L 2760 8979 L 2745 8985 L 2757 8997 L 2716 9001 L 2689 9017 L 2672 9019 L 2650 9036 L 2667 9043 L 2678 9069 L 2683 9038 L 2712 9036 L 2739 9021 L 2731 9055 L 2697 9060 L 2691 9070 L 2705 9080 L 2732 9084 L 2706 9089 L 2693 9081 L 2664 9091 L 2668 9075 L 2629 9072 L 2611 9089 L 2625 9096 L 2618 9142 L 2601 9146 L 2642 9160 L 2617 9162 L 2631 9176 L 2607 9198 L 2604 9235 L 2587 9239 L 2576 9273 L 2544 9281 L 2530 9300 L 2542 9303 L 2536 9321 L 2465 9347 L 2388 9360 L 2372 9345 L 2308 9354 L 2302 9342 L 2275 9347 L 2300 9334 L 2242 9342 L 2207 9360 L 2193 9386 L 2157 9398 L 2170 9410 L 2170 9428 L 2210 9441 L 2176 9443 L 2194 9452 L 2158 9446 L 2111 9471 L 2120 9495 L 2215 9513 L 2225 9524 L 2254 9531 L 2315 9533 L 2347 9559 L 2342 9594 L 2301 9600 L 2283 9596 L 2271 9615 L 2291 9624 L 2305 9648 L 2312 9637 L 2340 9645 L 2349 9660 L 2403 9676 L 2445 9665 L 2463 9673 L 2452 9686 L 2467 9696 L 2448 9713 L 2488 9727 L 2535 9722 L 2506 9731 L 2531 9739 L 2654 9758 L 2680 9739 L 2673 9699 L 2698 9721 L 2686 9750 L 2789 9722 L 2800 9727 L 2767 9742 L 2752 9768 L 2814 9764 L 2822 9757 L 2902 9734 L 2927 9716 L 2954 9720 L 2933 9734 L 2939 9738 L 2876 9757 L 2852 9778 L 2857 9788 L 2922 9772 L 2949 9759 L 2929 9747 L 2939 9738 L 2969 9760 L 2910 9787 L 3018 9786 L 3028 9766 L 3032 9785 L 3072 9772 L 3080 9781 L 3050 9787 L 2913 9795 L 2877 9802 L 2901 9811 L 2928 9803 L 2942 9817 L 3016 9822 L 3058 9806 L 3037 9817 L 3079 9816 L 3064 9831 L 3119 9812 L 3117 9835 L 3175 9844 L 3218 9844 L 3299 9851 L 3354 9849 L 3501 9826 L 3488 9819 L 3351 9814 L 3227 9797 L 3319 9803 L 3370 9813 L 3450 9808 L 3513 9816 L 3535 9796 L 3589 9789 L 3627 9776 L 3595 9755 L 3553 9751 L 3377 9741 L 3291 9720 L 3310 9708 L 3323 9719 L 3439 9735 L 3531 9730 L 3528 9715 L 3481 9704 L 3479 9690 L 3556 9713 L 3573 9733 L 3626 9737 L 3637 9715 L 3630 9697 L 3575 9655 L 3609 9662 L 3707 9718 L 3706 9696 L 3731 9689 L 3732 9713 L 3749 9694 L 3791 9719 L 3846 9718 L 3901 9705 L 3920 9693 L 3862 9662 L 3827 9660 L 3835 9646 L 3802 9636 L 3753 9637 L 3708 9631 L 3724 9626 L 3758 9632 L 3791 9620 L 3771 9607 L 3706 9606 L 3677 9594 L 3682 9610 L 3656 9585 L 3668 9571 L 3690 9573 L 3680 9551 L 3698 9543 L 3691 9512 L 3639 9512 L 3641 9501 L 3609 9441 L 3627 9440 L 3626 9455 L 3644 9459 L 3686 9455 L 3687 9483 L 3714 9502 L 3699 9482 L 3699 9464 L 3686 9431 L 3666 9442 L 3643 9439 L 3653 9422 L 3694 9410 L 3709 9416 L 3728 9452 L 3736 9447 L 3716 9411 L 3718 9393 L 3704 9368 L 3709 9334 L 3693 9366 L 3694 9388 L 3652 9395 L 3616 9377 L 3600 9389 L 3586 9380 L 3618 9369 L 3617 9352 L 3669 9353 L 3659 9336 L 3686 9321 L 3684 9291 L 3647 9295 L 3618 9312 L 3628 9299 L 3674 9270 L 3661 9258 L 3699 9258 L 3701 9295 L 3723 9302 L 3720 9291 L 3745 9279 L 3712 9276 L 3708 9261 L 3685 9234 L 3661 9235 L 3656 9245 L 3615 9244 L 3601 9225 L 3647 9212 L 3651 9187 L 3629 9188 L 3599 9176 L 3550 9196 L 3511 9189 L 3486 9175 L 3518 9167 L 3533 9130 L 3593 9101 L 3577 9090 L 3611 9092 L 3595 9083 L 3598 9066 L 3613 9066 L 3623 9027 L 3568 9022 L 3551 9031 L 3541 9056 L 3494 9083 L 3469 9081 L 3469 9081 M 3469 9081 L 3467 9082 L 3467 9082 L 3467 9082 L 3467 9082 L 3435 9105 L 3418 9103 L 3451 9091 L 3442 9085 L 3467 9082 L 3467 9082 L 3467 9082 L 3467 9082 L 3467 9081 L 3469 9081 L 3469 9081 M 3572 9166 L 3611 9157 L 3610 9144 L 3589 9145 L 3574 9155 L 3534 9156 L 3533 9161 L 3572 9166 L 3572 9166 M 3639 9244 L 3662 9229 L 3630 9224 L 3613 9239 L 3639 9244 L 3639 9244 M 3746 9591 L 3730 9575 L 3711 9571 L 3686 9583 L 3733 9598 L 3746 9591 L 3746 9591 M 2640 9018 L 2688 9009 L 2704 8995 L 2726 8988 L 2721 8971 L 2679 8958 L 2661 8970 L 2684 8969 L 2638 8983 L 2644 9000 L 2640 9018 L 2640 9018 M 3552 9132 L 3535 9152 L 3574 9153 L 3609 9128 L 3601 9113 L 3552 9132 L 3552 9132 M 3571 9174 L 3521 9180 L 3579 9168 L 3535 9164 L 3499 9172 L 3513 9185 L 3536 9186 L 3571 9174 L 3571 9174 M 2345 7052 L 2335 7049 L 2347 7031 L 2326 7047 L 2319 7041 L 2281 7039 L 2277 7051 L 2284 7056 L 2345 7052 L 2345 7052 M -927 8186 L -920 8180 L -949 8170 L -955 8176 L -983 8173 L -999 8176 L -999 8179 L -979 8183 L -943 8178 L -927 8186 L -927 8186 M 383 8319 L 382 8341 L 396 8345 L 403 8335 L 396 8303 L 384 8307 L 383 8319 L 383 8319 M 322 8373 L 306 8340 L 306 8387 L 314 8392 L 340 8389 L 357 8372 L 324 8367 L 322 8373 L 322 8373 M -630 8536 L -618 8531 L -614 8515 L -645 8512 L -670 8527 L -630 8536 L -630 8536 M -631 8270 L -635 8253 L -670 8239 L -682 8241 L -717 8220 L -697 8244 L -662 8245 L -657 8264 L -631 8270 L -631 8270 M -235 8455 L -211 8439 L -235 8435 L -225 8428 L -223 8405 L -249 8403 L -273 8379 L -269 8396 L -281 8385 L -296 8407 L -250 8436 L -235 8455 L -235 8455 M 252 8443 L 287 8433 L 290 8410 L 262 8421 L 268 8408 L 287 8403 L 296 8378 L 294 8355 L 274 8382 L 280 8391 L 268 8399 L 260 8389 L 256 8415 L 238 8432 L 252 8443 L 252 8443 M 325 8344 L 316 8342 L 325 8362 L 338 8361 L 370 8318 L 374 8298 L 361 8307 L 348 8294 L 336 8315 L 327 8298 L 336 8330 L 325 8344 L 325 8344 M 2369 8107 L 2391 8102 L 2435 8084 L 2440 8074 L 2424 8073 L 2385 8085 L 2360 8101 L 2369 8107 L 2369 8107 M 1860 8235 L 1869 8234 L 1881 8214 L 1841 8227 L 1860 8235 L 1860 8235 M 409 8281 L 451 8240 L 434 8245 L 433 8232 L 416 8248 L 419 8253 L 409 8281 L 409 8281 M 1919 8625 L 1922 8607 L 1909 8589 L 1897 8597 L 1896 8614 L 1907 8626 L 1919 8625 L 1919 8625 M 1840 8652 L 1845 8641 L 1810 8616 L 1794 8614 L 1787 8630 L 1805 8650 L 1840 8652 L 1840 8652 M 1976 8666 L 1963 8657 L 1945 8672 L 1970 8674 L 1979 8686 L 1999 8680 L 1976 8666 L 1976 8666 M 2032 8911 L 2045 8907 L 2047 8873 L 2023 8858 L 1991 8857 L 1981 8880 L 1999 8908 L 2032 8911 L 2032 8911 M 1936 8972 L 1955 8962 L 1936 8942 L 1937 8910 L 1919 8943 L 1939 8963 L 1936 8972 L 1936 8972 M 1179 9180 L 1158 9154 L 1122 9185 L 1107 9189 L 1120 9202 L 1162 9205 L 1181 9194 L 1179 9180 L 1179 9180 M 1185 9357 L 1177 9374 L 1195 9378 L 1234 9356 L 1245 9338 L 1205 9330 L 1201 9299 L 1208 9288 L 1189 9278 L 1170 9284 L 1192 9303 L 1197 9334 L 1185 9357 L 1185 9357 M 794 9345 L 786 9321 L 766 9307 L 743 9313 L 766 9332 L 794 9345 L 794 9345 M 1599 9438 L 1616 9427 L 1605 9411 L 1573 9424 L 1574 9437 L 1599 9438 L 1599 9438 M 1166 9424 L 1184 9417 L 1174 9405 L 1151 9417 L 1135 9445 L 1152 9443 L 1166 9424 L 1166 9424 M 1449 9447 L 1514 9444 L 1505 9427 L 1432 9428 L 1425 9442 L 1449 9447 L 1449 9447 M 1330 9600 L 1352 9590 L 1349 9570 L 1308 9594 L 1330 9600 L 1330 9600 M 1908 8413 L 1908 8387 L 1930 8366 L 1939 8376 L 1941 8355 L 1927 8357 L 1918 8342 L 1900 8360 L 1913 8363 L 1907 8382 L 1908 8413 L 1908 8413 M 457 8230 L 472 8232 L 475 8203 L 461 8204 L 457 8230 L 457 8230 M 2499 7960 L 2479 7945 L 2451 7943 L 2445 7960 L 2473 7997 L 2480 7981 L 2463 7953 L 2482 7971 L 2499 7960 L 2499 7960 M 2432 7975 L 2406 7963 L 2384 7967 L 2360 7984 L 2370 7987 L 2382 7975 L 2432 7975 L 2432 7975 M 1897 9175 L 1879 9178 L 1878 9203 L 1918 9198 L 1957 9200 L 1984 9191 L 2013 9167 L 2010 9152 L 1956 9156 L 1926 9148 L 1904 9153 L 1897 9175 L 1897 9175 M 1466 9325 L 1475 9337 L 1479 9313 L 1505 9293 L 1502 9257 L 1469 9256 L 1452 9266 L 1451 9248 L 1435 9253 L 1434 9267 L 1413 9277 L 1425 9304 L 1400 9307 L 1423 9316 L 1438 9307 L 1464 9316 L 1466 9325 L 1466 9325 M 978 9479 L 956 9485 L 926 9479 L 925 9487 L 1007 9510 L 1034 9499 L 1037 9481 L 986 9486 L 978 9479 L 978 9479 M 1406 9470 L 1378 9476 L 1361 9493 L 1368 9514 L 1427 9501 L 1466 9484 L 1450 9477 L 1459 9459 L 1410 9453 L 1379 9464 L 1406 9470 L 1406 9470 M 2427 7001 L 2436 7010 L 2438 7031 L 2441 7012 L 2455 6988 L 2453 6959 L 2466 6934 L 2462 6923 L 2438 6991 L 2427 7001 L 2427 7001 M 1978 7054 L 1993 7053 L 2014 7038 L 1995 7040 L 1984 7032 L 1969 7036 L 1950 7048 L 1964 7056 L 1978 7054 L 1978 7054 M 1964 7279 L 1961 7255 L 1969 7245 L 1973 7215 L 1957 7239 L 1948 7243 L 1962 7259 L 1964 7279 L 1964 7279 M 1965 7304 L 1940 7304 L 1946 7309 L 1975 7313 L 1989 7303 L 1973 7294 L 1965 7304 L 1965 7304 M -777 8681 L -754 8686 L -748 8676 L -707 8668 L -738 8652 L -770 8675 L -787 8668 L -800 8678 L -796 8690 L -777 8681 L -777 8681 M 1979 6762 L 1985 6741 L 1964 6720 L 1948 6744 L 1958 6757 L 1927 6750 L 1943 6762 L 1929 6772 L 1911 6768 L 1909 6760 L 1888 6749 L 1902 6728 L 1877 6720 L 1874 6730 L 1849 6720 L 1857 6734 L 1853 6745 L 1837 6753 L 1815 6749 L 1788 6764 L 1795 6773 L 1764 6791 L 1763 6801 L 1752 6789 L 1736 6799 L 1729 6812 L 1734 6834 L 1711 6854 L 1702 6867 L 1677 6887 L 1687 6890 L 1675 6901 L 1669 6895 L 1644 6898 L 1614 6906 L 1587 6918 L 1569 6919 L 1542 6937 L 1524 6956 L 1493 6983 L 1470 6986 L 1465 6993 L 1448 6979 L 1415 6970 L 1379 6979 L 1347 6996 L 1321 7002 L 1283 7018 L 1261 7037 L 1211 7050 L 1197 7067 L 1166 7082 L 1146 7113 L 1160 7120 L 1153 7127 L 1161 7146 L 1148 7161 L 1143 7182 L 1107 7223 L 1079 7244 L 1070 7258 L 1036 7279 L 1042 7296 L 1034 7310 L 1002 7327 L 1002 7343 L 983 7351 L 955 7381 L 928 7439 L 930 7450 L 904 7464 L 882 7468 L 876 7450 L 883 7419 L 913 7389 L 926 7390 L 928 7365 L 935 7370 L 938 7345 L 960 7317 L 974 7308 L 993 7259 L 1004 7251 L 998 7241 L 1023 7230 L 1035 7210 L 1033 7196 L 1023 7189 L 1011 7209 L 975 7235 L 969 7233 L 957 7251 L 959 7274 L 955 7286 L 923 7309 L 888 7325 L 887 7330 L 872 7344 L 872 7344 L 887 7342 L 897 7347 L 901 7363 L 873 7393 L 852 7405 L 841 7439 L 823 7463 L 825 7473 L 807 7490 L 804 7513 L 782 7534 L 774 7523 L 774 7504 L 767 7511 L 773 7537 L 749 7548 L 722 7539 L 729 7556 L 707 7562 L 707 7580 L 688 7598 L 667 7628 L 673 7636 L 655 7649 L 652 7669 L 666 7658 L 652 7680 L 651 7670 L 616 7708 L 612 7739 L 596 7760 L 606 7795 L 592 7845 L 603 7882 L 611 7942 L 604 7991 L 595 8023 L 586 8039 L 591 8047 L 606 8039 L 645 8035 L 654 8054 L 633 8078 L 588 8099 L 590 8117 L 577 8127 L 531 8129 L 527 8138 L 496 8156 L 494 8189 L 518 8198 L 511 8204 L 494 8195 L 488 8166 L 480 8192 L 484 8204 L 474 8231 L 451 8241 L 418 8278 L 418 8295 L 404 8298 L 400 8314 L 405 8336 L 396 8346 L 380 8343 L 374 8327 L 374 8354 L 364 8344 L 352 8352 L 364 8374 L 337 8397 L 312 8435 L 308 8436 L 317 8423 L 316 8402 L 308 8397 L 296 8390 L 300 8406 L 290 8436 L 307 8437 L 296 8442 L 274 8486 L 283 8447 L 265 8446 L 252 8469 L 238 8468 L 254 8448 L 235 8441 L 206 8459 L 188 8478 L 142 8498 L 148 8513 L 128 8505 L 55 8523 L 10 8518 L -3 8532 L -37 8538 L -57 8529 L -47 8547 L -63 8555 L -56 8569 L -83 8546 L -78 8557 L -102 8554 L -89 8518 L -146 8513 L -177 8488 L -199 8480 L -215 8488 L -200 8495 L -212 8509 L -195 8542 L -199 8550 L -159 8570 L -173 8579 L -212 8552 L -217 8534 L -234 8528 L -237 8514 L -254 8502 L -257 8489 L -279 8491 L -280 8476 L -254 8468 L -277 8453 L -292 8433 L -305 8432 L -326 8413 L -334 8414 L -349 8389 L -368 8380 L -357 8356 L -385 8376 L -407 8362 L -412 8346 L -446 8341 L -475 8311 L -471 8325 L -489 8321 L -499 8331 L -502 8309 L -545 8299 L -528 8284 L -550 8297 L -581 8283 L -597 8289 L -585 8302 L -556 8309 L -548 8302 L -545 8323 L -529 8321 L -505 8342 L -468 8347 L -462 8359 L -420 8383 L -401 8402 L -383 8413 L -378 8451 L -365 8470 L -397 8458 L -419 8465 L -423 8450 L -439 8471 L -459 8459 L -461 8478 L -483 8455 L -501 8464 L -511 8486 L -501 8496 L -519 8523 L -557 8509 L -611 8543 L -588 8555 L -602 8559 L -633 8589 L -630 8600 L -602 8631 L -586 8659 L -573 8666 L -550 8655 L -527 8666 L -529 8682 L -486 8677 L -474 8688 L -480 8712 L -493 8720 L -475 8730 L -486 8745 L -543 8720 L -555 8727 L -599 8721 L -633 8728 L -656 8755 L -632 8761 L -669 8767 L -688 8746 L -689 8776 L -637 8805 L -590 8823 L -561 8825 L -559 8800 L -515 8799 L -480 8808 L -506 8819 L -529 8840 L -519 8843 L -498 8818 L -474 8814 L -457 8822 L -477 8829 L -495 8822 L -506 8830 L -505 8848 L -523 8845 L -559 8850 L -573 8876 L -644 8913 L -634 8940 L -579 8943 L -543 8966 L -539 8991 L -507 9015 L -476 9017 L -441 9041 L -393 9043 L -357 9068 L -322 9062 L -335 9050 L -321 9043 L -310 9058 L -278 9041 L -254 9048 L -222 9042 L -234 9028 L -215 9022 L -134 9028 L -109 9015 L -72 9007 L -36 9008 L 2 8998 L 40 9005 L 61 8999 L 96 8980 L 140 8979 L 162 8973 L 193 8954 L 235 8940 L 253 8940 L 260 8962 L 290 8972 L 304 8984 L 320 8972 L 306 8959 L 337 8967 L 347 8981 L 396 8989 L 412 9006 L 443 8998 L 401 8980 L 373 8974 L 332 8938 L 351 8935 L 347 8949 L 376 8961 L 383 8971 L 403 8960 L 421 8983 L 457 8991 L 461 8982 L 487 9008 L 483 9033 L 516 9012 L 528 8986 L 551 8968 L 564 8973 L 582 8995 L 576 9007 L 596 9007 L 594 8984 L 606 8984 L 595 8965 L 632 8972 L 639 8990 L 684 8986 L 717 8967 L 765 8958 L 783 8948 L 844 8936 L 845 8946 L 903 8926 L 902 8908 L 874 8909 L 857 8892 L 890 8882 L 922 8881 L 935 8904 L 930 8879 L 996 8886 L 1030 8907 L 1057 8875 L 1079 8859 L 1074 8872 L 1082 8900 L 1115 8900 L 1124 8913 L 1145 8917 L 1148 8928 L 1122 8922 L 1089 8904 L 1055 8909 L 1070 8927 L 1129 8941 L 1153 8932 L 1151 8916 L 1182 8921 L 1182 8897 L 1210 8899 L 1246 8881 L 1269 8879 L 1293 8887 L 1362 8886 L 1341 8898 L 1356 8900 L 1386 8875 L 1399 8884 L 1382 8896 L 1371 8891 L 1352 8914 L 1394 8919 L 1400 8909 L 1435 8910 L 1418 8869 L 1439 8864 L 1452 8840 L 1456 8859 L 1440 8881 L 1448 8899 L 1465 8897 L 1498 8926 L 1472 8934 L 1486 8950 L 1481 8970 L 1425 8991 L 1415 9015 L 1426 9032 L 1413 9042 L 1418 9068 L 1447 9078 L 1433 9082 L 1454 9103 L 1472 9106 L 1457 9104 L 1455 9135 L 1440 9153 L 1440 9198 L 1454 9205 L 1454 9219 L 1500 9229 L 1541 9218 L 1562 9221 L 1602 9213 L 1553 9153 L 1538 9146 L 1486 9149 L 1506 9132 L 1486 9108 L 1474 9106 L 1520 9071 L 1521 9042 L 1537 9034 L 1550 9012 L 1553 8990 L 1565 8990 L 1575 8973 L 1603 8967 L 1585 8952 L 1595 8940 L 1590 8918 L 1600 8907 L 1616 8928 L 1618 8949 L 1639 8958 L 1666 8936 L 1673 8912 L 1655 8909 L 1659 8884 L 1685 8857 L 1711 8864 L 1712 8875 L 1697 8899 L 1705 8911 L 1715 8892 L 1728 8898 L 1735 8932 L 1769 8947 L 1745 8957 L 1739 8980 L 1746 8990 L 1789 8990 L 1825 8980 L 1839 8962 L 1858 8967 L 1865 8951 L 1849 8942 L 1866 8935 L 1833 8904 L 1866 8868 L 1857 8845 L 1845 8844 L 1810 8811 L 1797 8813 L 1793 8792 L 1803 8777 L 1780 8784 L 1773 8805 L 1747 8810 L 1743 8824 L 1702 8817 L 1730 8804 L 1712 8783 L 1685 8763 L 1669 8763 L 1638 8781 L 1636 8763 L 1695 8759 L 1698 8754 L 1667 8709 L 1636 8698 L 1614 8712 L 1600 8682 L 1579 8680 L 1589 8657 L 1577 8639 L 1528 8629 L 1523 8605 L 1491 8583 L 1495 8577 L 1480 8556 L 1466 8516 L 1467 8475 L 1484 8466 L 1515 8464 L 1537 8404 L 1528 8387 L 1578 8400 L 1613 8388 L 1641 8383 L 1667 8366 L 1679 8349 L 1735 8331 L 1766 8316 L 1787 8320 L 1836 8311 L 1831 8275 L 1840 8258 L 1834 8224 L 1856 8204 L 1862 8190 L 1885 8175 L 1889 8161 L 1910 8152 L 1921 8173 L 1908 8230 L 1900 8239 L 1909 8247 L 1905 8262 L 1920 8274 L 1909 8292 L 1912 8300 L 1932 8300 L 1967 8318 L 2000 8351 L 2005 8380 L 1988 8430 L 1940 8465 L 1966 8487 L 1967 8504 L 1983 8518 L 1968 8537 L 1972 8552 L 1954 8555 L 1974 8584 L 1958 8603 L 1958 8634 L 1991 8632 L 2056 8615 L 2066 8619 L 2068 8637 L 2078 8638 L 2106 8616 L 2119 8613 L 2148 8592 L 2156 8569 L 2193 8565 L 2198 8555 L 2210 8566 L 2214 8554 L 2201 8541 L 2208 8528 L 2205 8499 L 2224 8475 L 2271 8444 L 2311 8465 L 2332 8487 L 2327 8506 L 2341 8517 L 2355 8549 L 2363 8521 L 2407 8460 L 2412 8439 L 2442 8423 L 2431 8400 L 2450 8394 L 2446 8380 L 2455 8366 L 2433 8356 L 2458 8355 L 2459 8341 L 2481 8338 L 2484 8324 L 2471 8307 L 2497 8320 L 2496 8311 L 2519 8313 L 2522 8300 L 2570 8289 L 2565 8274 L 2575 8255 L 2615 8245 L 2617 8190 L 2580 8164 L 2558 8166 L 2521 8147 L 2509 8129 L 2486 8117 L 2466 8118 L 2440 8112 L 2436 8117 L 2397 8120 L 2377 8116 L 2336 8121 L 2302 8119 L 2281 8102 L 2273 8083 L 2253 8081 L 2224 8061 L 2229 8048 L 2296 8075 L 2327 8080 L 2356 8074 L 2368 8061 L 2362 8048 L 2331 8033 L 2317 8041 L 2299 8037 L 2325 8020 L 2358 8028 L 2332 7999 L 2346 7991 L 2358 7967 L 2370 7960 L 2418 7944 L 2434 7954 L 2461 7934 L 2386 7903 L 2364 7906 L 2348 7880 L 2322 7868 L 2310 7877 L 2305 7896 L 2314 7907 L 2362 7934 L 2362 7926 L 2385 7936 L 2346 7938 L 2359 7949 L 2317 7930 L 2288 7924 L 2275 7908 L 2259 7905 L 2236 7887 L 2227 7898 L 2218 7883 L 2198 7880 L 2179 7860 L 2176 7838 L 2166 7826 L 2191 7803 L 2155 7796 L 2149 7785 L 2138 7792 L 2111 7788 L 2089 7780 L 2101 7777 L 2127 7785 L 2134 7780 L 2104 7767 L 2070 7762 L 2079 7756 L 2075 7736 L 2053 7709 L 2034 7727 L 2047 7704 L 2044 7679 L 2023 7655 L 2031 7675 L 2012 7673 L 2011 7643 L 2020 7640 L 2033 7605 L 2018 7588 L 2021 7580 L 2003 7565 L 1986 7565 L 1971 7555 L 1962 7538 L 1938 7535 L 1921 7510 L 1876 7479 L 1857 7440 L 1866 7404 L 1884 7368 L 1883 7357 L 1900 7317 L 1896 7269 L 1892 7262 L 1870 7259 L 1863 7279 L 1852 7282 L 1823 7332 L 1832 7342 L 1819 7343 L 1825 7377 L 1794 7410 L 1784 7416 L 1756 7400 L 1720 7429 L 1677 7421 L 1666 7436 L 1664 7420 L 1649 7425 L 1628 7422 L 1629 7405 L 1617 7403 L 1633 7382 L 1613 7391 L 1601 7383 L 1581 7382 L 1558 7405 L 1541 7398 L 1514 7405 L 1489 7402 L 1443 7373 L 1414 7367 L 1421 7362 L 1401 7345 L 1389 7326 L 1397 7277 L 1383 7240 L 1376 7180 L 1383 7151 L 1398 7121 L 1418 7097 L 1423 7080 L 1437 7063 L 1455 7062 L 1477 7045 L 1529 7059 L 1554 7061 L 1580 7075 L 1594 7099 L 1598 7132 L 1614 7140 L 1663 7150 L 1704 7138 L 1704 7118 L 1696 7109 L 1689 7116 L 1674 7089 L 1683 7085 L 1675 7061 L 1685 7052 L 1664 7044 L 1669 7023 L 1660 7025 L 1660 7009 L 1651 6988 L 1639 6980 L 1662 6971 L 1681 6974 L 1716 6993 L 1729 6993 L 1728 6980 L 1755 6980 L 1776 6974 L 1782 6961 L 1803 6957 L 1810 6950 L 1808 6932 L 1797 6899 L 1799 6873 L 1788 6842 L 1800 6816 L 1821 6792 L 1841 6781 L 1840 6770 L 1857 6775 L 1857 6767 L 1878 6769 L 1916 6791 L 1960 6779 L 1979 6762 L 1979 6762 M 868 7348 L 872 7344 L 872 7344 L 868 7345 L 868 7348 L 868 7348 L 868 7348 L 868 7348 M 363 8233 L 352 8236 L 339 8262 L 341 8275 L 369 8266 L 382 8272 L 375 8239 L 368 8234 L 379 8236 L 394 8191 L 363 8224 L 356 8231 L 363 8233 L 363 8233 M 1857 7160 L 1855 7164 L 1855 7164 L 1855 7164 L 1857 7163 L 1857 7160 L 1857 7160 L 1857 7160 M 2049 7197 L 2047 7198 L 2047 7201 L 2047 7201 L 2049 7197 L 2049 7197 L 2049 7197 L 2049 7197 M 2049 7197 L 2070 7185 L 2094 7180 L 2068 7179 L 2054 7188 L 2049 7197 L 2049 7197 L 2049 7197 L 2049 7197 M 2462 6826 L 2460 6822 L 2461 6806 L 2434 6803 L 2447 6811 L 2441 6823 L 2462 6826 L 2462 6826 L 2462 6826 L 2462 6826 M 1858 7151 L 1858 7152 L 1858 7152 L 1858 7152 L 1858 7151 L 1858 7151 L 1858 7151 L 1858 7151 M 1858 7151 L 1812 7146 L 1812 7157 L 1824 7161 L 1844 7151 L 1858 7151 L 1858 7151 L 1858 7151 M 1858 7152 L 1857 7160 L 1857 7160 L 1860 7152 L 1858 7152 L 1858 7152 L 1858 7152 L 1858 7152 M 543 8081 L 473 8139 L 494 8143 L 514 8132 L 556 8124 L 568 8126 L 573 8106 L 592 8085 L 617 8076 L 631 8064 L 621 8044 L 588 8054 L 543 8081 L 543 8081 M 2236 9006 L 2211 8989 L 2249 9005 L 2253 9016 L 2278 8996 L 2269 8978 L 2294 8956 L 2264 8955 L 2225 8965 L 2263 8948 L 2258 8931 L 2244 8926 L 2288 8917 L 2315 8897 L 2352 8894 L 2340 8887 L 2362 8884 L 2385 8862 L 2403 8856 L 2422 8831 L 2424 8847 L 2452 8829 L 2447 8814 L 2416 8807 L 2433 8797 L 2419 8795 L 2428 8780 L 2396 8778 L 2383 8770 L 2393 8758 L 2387 8743 L 2378 8755 L 2356 8752 L 2321 8784 L 2315 8801 L 2289 8822 L 2273 8823 L 2281 8811 L 2259 8818 L 2283 8795 L 2257 8791 L 2240 8806 L 2259 8779 L 2272 8782 L 2294 8750 L 2337 8730 L 2347 8712 L 2338 8701 L 2354 8699 L 2371 8678 L 2357 8665 L 2340 8679 L 2354 8649 L 2335 8653 L 2336 8643 L 2291 8658 L 2260 8684 L 2263 8671 L 2234 8690 L 2230 8682 L 2269 8656 L 2316 8617 L 2331 8592 L 2354 8590 L 2348 8578 L 2315 8603 L 2306 8601 L 2275 8614 L 2239 8619 L 2208 8638 L 2182 8643 L 2174 8633 L 2163 8653 L 2146 8662 L 2159 8680 L 2137 8685 L 2130 8698 L 2114 8685 L 2111 8708 L 2077 8734 L 2059 8718 L 2026 8729 L 2014 8714 L 1986 8714 L 1962 8698 L 1965 8718 L 1955 8731 L 1957 8745 L 1981 8757 L 1977 8770 L 2027 8758 L 2037 8734 L 2038 8748 L 2021 8763 L 2043 8760 L 2077 8773 L 2094 8770 L 2089 8782 L 2065 8803 L 2127 8851 L 2119 8885 L 2108 8907 L 2080 8916 L 2070 8899 L 2096 8894 L 2096 8884 L 2067 8884 L 2056 8898 L 2073 8908 L 2072 8921 L 2055 8924 L 2055 8912 L 2037 8922 L 2058 8940 L 2035 8947 L 2001 8930 L 2001 8947 L 2031 8951 L 2029 8961 L 2001 8975 L 1993 8953 L 1979 8960 L 1994 8988 L 1970 8989 L 1970 9008 L 1949 9010 L 1929 9027 L 1915 9019 L 1932 9016 L 1941 8999 L 1911 8990 L 1922 8983 L 1904 8978 L 1899 8965 L 1887 8981 L 1855 8997 L 1819 8987 L 1812 8999 L 1794 8996 L 1731 9004 L 1709 9011 L 1712 8999 L 1694 8998 L 1696 9013 L 1646 9023 L 1621 9057 L 1657 9050 L 1688 9052 L 1665 9063 L 1613 9070 L 1614 9093 L 1605 9102 L 1620 9115 L 1609 9120 L 1620 9150 L 1629 9148 L 1636 9176 L 1674 9203 L 1705 9210 L 1752 9208 L 1756 9200 L 1725 9179 L 1705 9152 L 1718 9128 L 1712 9117 L 1722 9095 L 1759 9067 L 1726 9061 L 1759 9060 L 1769 9077 L 1747 9088 L 1726 9108 L 1754 9120 L 1734 9141 L 1739 9161 L 1765 9184 L 1819 9204 L 1857 9203 L 1869 9176 L 1883 9171 L 1895 9147 L 1888 9116 L 1907 9134 L 1933 9121 L 1925 9105 L 1940 9102 L 1935 9119 L 1948 9139 L 1973 9148 L 2043 9134 L 2047 9113 L 2072 9110 L 2060 9087 L 2090 9093 L 2078 9078 L 2106 9066 L 2108 9074 L 2098 9081 L 2123 9087 L 2150 9080 L 2163 9066 L 2157 9046 L 2173 9058 L 2181 9048 L 2167 9032 L 2199 9045 L 2244 9029 L 2241 9018 L 2206 9006 L 2236 9006 L 2236 9006 M 2680 8015 L 2688 8033 L 2699 8036 L 2689 8019 L 2702 8025 L 2707 8015 L 2698 7988 L 2680 7981 L 2679 8001 L 2661 7991 L 2670 8010 L 2666 8025 L 2662 8009 L 2642 8011 L 2630 7992 L 2609 7992 L 2610 8012 L 2603 8019 L 2583 8015 L 2548 8021 L 2516 8016 L 2508 8028 L 2537 8051 L 2529 8055 L 2537 8075 L 2547 8070 L 2544 8087 L 2571 8141 L 2587 8159 L 2613 8171 L 2626 8184 L 2616 8150 L 2586 8109 L 2583 8091 L 2604 8114 L 2617 8116 L 2618 8094 L 2643 8081 L 2651 8095 L 2683 8079 L 2670 8070 L 2670 8054 L 2686 8047 L 2671 8022 L 2680 8015 L 2680 8015 M 1286 8971 L 1270 8993 L 1265 8980 L 1238 8985 L 1230 8966 L 1250 8965 L 1265 8951 L 1259 8924 L 1240 8939 L 1212 8935 L 1169 8949 L 1125 8956 L 1120 8972 L 1098 8948 L 1063 8944 L 1051 8933 L 1013 8927 L 975 8911 L 975 8923 L 939 8919 L 912 8936 L 911 8956 L 890 8961 L 844 8962 L 825 8970 L 801 8998 L 815 9005 L 897 9015 L 932 9014 L 935 9027 L 917 9035 L 848 9029 L 821 9024 L 797 9031 L 773 9053 L 840 9072 L 848 9081 L 798 9072 L 775 9077 L 782 9088 L 753 9086 L 753 9103 L 781 9119 L 767 9130 L 803 9157 L 885 9184 L 903 9169 L 901 9151 L 884 9140 L 910 9140 L 931 9163 L 984 9146 L 965 9127 L 971 9122 L 998 9138 L 1026 9134 L 999 9162 L 1017 9162 L 1060 9138 L 1059 9126 L 1087 9086 L 1100 9101 L 1085 9114 L 1074 9179 L 1079 9193 L 1103 9173 L 1112 9180 L 1156 9150 L 1166 9112 L 1188 9071 L 1177 9058 L 1197 9038 L 1230 9026 L 1269 9004 L 1289 9016 L 1286 8971 L 1286 8971 M 1795 8689 L 1772 8679 L 1767 8668 L 1747 8659 L 1736 8665 L 1732 8687 L 1691 8681 L 1699 8697 L 1720 8705 L 1713 8728 L 1721 8745 L 1727 8784 L 1752 8798 L 1767 8771 L 1782 8758 L 1802 8754 L 1808 8745 L 1850 8724 L 1854 8706 L 1887 8699 L 1896 8691 L 1872 8674 L 1829 8685 L 1828 8699 L 1812 8698 L 1813 8709 L 1794 8701 L 1795 8689 L 1795 8689 M 1295 8946 L 1326 8947 L 1361 8963 L 1355 8969 L 1375 8993 L 1388 8994 L 1405 8972 L 1441 8978 L 1429 8958 L 1436 8941 L 1455 8939 L 1416 8918 L 1388 8922 L 1314 8944 L 1312 8914 L 1295 8946 L 1295 8946 M 1336 9071 L 1318 9098 L 1278 9125 L 1260 9124 L 1237 9143 L 1241 9164 L 1254 9166 L 1276 9146 L 1301 9147 L 1312 9160 L 1266 9190 L 1287 9196 L 1288 9209 L 1313 9205 L 1308 9214 L 1330 9214 L 1381 9226 L 1382 9245 L 1394 9254 L 1375 9213 L 1394 9211 L 1398 9184 L 1362 9164 L 1395 9160 L 1408 9173 L 1423 9130 L 1415 9097 L 1371 9081 L 1352 9066 L 1336 9071 L 1336 9071 M 751 9231 L 782 9235 L 818 9224 L 863 9189 L 830 9177 L 750 9141 L 745 9125 L 718 9120 L 710 9081 L 634 9056 L 606 9090 L 571 9104 L 552 9104 L 570 9133 L 576 9155 L 615 9205 L 604 9210 L 586 9239 L 679 9251 L 721 9235 L 751 9231 L 751 9231 M 1313 9304 L 1319 9316 L 1271 9313 L 1236 9307 L 1224 9331 L 1249 9336 L 1274 9324 L 1252 9350 L 1274 9371 L 1295 9383 L 1324 9376 L 1339 9365 L 1346 9375 L 1382 9367 L 1391 9318 L 1368 9297 L 1385 9286 L 1372 9279 L 1304 9278 L 1291 9298 L 1313 9304 L 1313 9304 M 1008 9355 L 1035 9381 L 1056 9390 L 1057 9376 L 1076 9354 L 1064 9339 L 1107 9330 L 1119 9341 L 1144 9336 L 1155 9316 L 1137 9281 L 1066 9272 L 1054 9281 L 1032 9269 L 971 9248 L 931 9242 L 911 9245 L 889 9259 L 937 9276 L 974 9278 L 992 9292 L 951 9284 L 903 9282 L 901 9299 L 889 9281 L 874 9275 L 866 9287 L 852 9275 L 799 9289 L 817 9324 L 876 9329 L 822 9331 L 822 9340 L 850 9351 L 858 9365 L 889 9367 L 890 9381 L 889 9391 L 918 9384 L 921 9353 L 948 9347 L 977 9327 L 983 9308 L 1005 9311 L 1052 9306 L 1046 9322 L 1018 9331 L 1040 9343 L 1008 9355 L 1008 9355 M 1920 9270 L 1895 9263 L 1897 9255 L 1849 9245 L 1816 9251 L 1810 9267 L 1799 9252 L 1777 9248 L 1708 9246 L 1652 9248 L 1651 9271 L 1641 9257 L 1609 9250 L 1549 9264 L 1546 9285 L 1535 9290 L 1549 9313 L 1544 9331 L 1516 9359 L 1488 9353 L 1437 9361 L 1408 9397 L 1438 9403 L 1499 9393 L 1517 9375 L 1566 9379 L 1591 9371 L 1595 9362 L 1629 9355 L 1626 9348 L 1571 9347 L 1602 9341 L 1632 9325 L 1640 9303 L 1650 9316 L 1661 9305 L 1674 9312 L 1714 9303 L 1754 9316 L 1767 9314 L 1792 9326 L 1811 9321 L 1834 9327 L 1869 9324 L 1912 9305 L 1913 9288 L 1889 9280 L 1914 9278 L 1920 9270 L 1920 9270 M 861 9417 L 832 9406 L 850 9396 L 846 9380 L 812 9369 L 803 9353 L 784 9361 L 792 9385 L 770 9381 L 775 9372 L 756 9367 L 768 9358 L 730 9328 L 700 9333 L 671 9340 L 654 9333 L 642 9351 L 656 9362 L 680 9364 L 694 9378 L 760 9421 L 789 9423 L 807 9416 L 809 9427 L 831 9433 L 861 9417 L 861 9417 M 1013 9430 L 958 9419 L 926 9431 L 914 9449 L 897 9442 L 869 9459 L 892 9466 L 910 9455 L 999 9468 L 1029 9467 L 1029 9459 L 995 9453 L 1016 9447 L 1013 9430 L 1013 9430 M 1204 9550 L 1229 9541 L 1243 9527 L 1265 9531 L 1327 9500 L 1318 9489 L 1342 9466 L 1343 9454 L 1316 9447 L 1296 9452 L 1261 9441 L 1242 9444 L 1239 9477 L 1232 9475 L 1233 9485 L 1182 9479 L 1165 9494 L 1177 9499 L 1211 9494 L 1211 9512 L 1190 9512 L 1194 9525 L 1166 9514 L 1176 9526 L 1150 9527 L 1155 9548 L 1204 9550 L 1204 9550 M 1636 9605 L 1662 9599 L 1646 9612 L 1653 9622 L 1676 9620 L 1697 9586 L 1691 9564 L 1707 9569 L 1738 9564 L 1757 9545 L 1711 9530 L 1680 9504 L 1660 9523 L 1661 9489 L 1636 9473 L 1608 9501 L 1624 9472 L 1604 9482 L 1598 9470 L 1549 9475 L 1482 9524 L 1513 9537 L 1553 9536 L 1531 9555 L 1492 9543 L 1439 9552 L 1443 9563 L 1482 9576 L 1436 9569 L 1413 9584 L 1411 9602 L 1465 9595 L 1488 9604 L 1449 9601 L 1415 9611 L 1433 9619 L 1431 9632 L 1459 9639 L 1447 9654 L 1465 9665 L 1515 9667 L 1513 9675 L 1479 9679 L 1512 9687 L 1554 9672 L 1586 9631 L 1628 9629 L 1636 9605 L 1636 9605 M 1879 9419 L 1931 9405 L 1920 9394 L 1963 9396 L 1968 9377 L 1931 9363 L 1927 9336 L 1910 9329 L 1915 9356 L 1882 9347 L 1862 9348 L 1874 9366 L 1820 9361 L 1787 9366 L 1757 9363 L 1772 9356 L 1684 9365 L 1655 9361 L 1651 9387 L 1640 9362 L 1624 9372 L 1606 9367 L 1591 9381 L 1658 9407 L 1678 9404 L 1699 9415 L 1676 9420 L 1661 9448 L 1691 9455 L 1719 9448 L 1732 9430 L 1800 9420 L 1801 9430 L 1828 9459 L 1820 9462 L 1801 9436 L 1787 9429 L 1739 9432 L 1750 9449 L 1736 9458 L 1753 9465 L 1762 9483 L 1741 9469 L 1719 9465 L 1682 9469 L 1682 9490 L 1708 9513 L 1748 9520 L 1792 9515 L 1850 9517 L 1859 9529 L 1828 9518 L 1776 9523 L 1775 9538 L 1754 9567 L 1711 9577 L 1713 9614 L 1791 9609 L 1838 9583 L 1853 9565 L 1884 9566 L 1858 9573 L 1853 9586 L 1808 9614 L 1960 9633 L 1903 9634 L 1945 9645 L 2002 9654 L 1936 9651 L 1935 9661 L 1972 9683 L 1955 9682 L 1921 9661 L 1913 9649 L 1866 9635 L 1816 9629 L 1805 9640 L 1773 9627 L 1704 9633 L 1732 9657 L 1722 9660 L 1688 9635 L 1626 9652 L 1655 9660 L 1705 9661 L 1763 9680 L 1710 9669 L 1613 9661 L 1598 9673 L 1626 9678 L 1610 9684 L 1655 9702 L 1593 9686 L 1583 9693 L 1620 9705 L 1588 9708 L 1566 9699 L 1551 9705 L 1578 9720 L 1615 9725 L 1626 9718 L 1647 9735 L 1667 9739 L 1733 9730 L 1762 9730 L 1704 9741 L 1701 9747 L 1745 9752 L 1733 9765 L 1794 9756 L 1826 9738 L 1815 9752 L 1901 9729 L 1822 9758 L 1841 9780 L 1884 9771 L 1856 9788 L 1905 9786 L 1897 9799 L 1986 9794 L 2023 9774 L 2000 9795 L 1979 9803 L 2016 9808 L 2073 9804 L 2084 9794 L 2109 9809 L 2205 9812 L 2207 9803 L 2250 9804 L 2303 9796 L 2237 9777 L 2271 9779 L 2352 9797 L 2407 9768 L 2444 9766 L 2452 9745 L 2362 9711 L 2249 9700 L 2295 9696 L 2194 9672 L 2322 9695 L 2357 9699 L 2352 9688 L 2314 9676 L 2247 9644 L 2197 9610 L 2132 9596 L 2177 9602 L 2153 9575 L 2131 9570 L 2097 9577 L 2103 9561 L 2078 9555 L 2047 9558 L 2048 9550 L 2014 9558 L 2022 9549 L 1979 9556 L 1981 9543 L 2065 9541 L 2060 9512 L 2055 9499 L 2005 9496 L 2046 9485 L 2032 9468 L 1994 9455 L 1956 9459 L 1969 9436 L 1952 9422 L 1928 9416 L 1879 9419 L 1879 9419 M 1855 7164 L 1840 7175 L 1847 7183 L 1820 7183 L 1798 7161 L 1787 7167 L 1769 7155 L 1771 7168 L 1782 7182 L 1807 7193 L 1837 7199 L 1882 7199 L 1900 7195 L 1917 7185 L 1924 7174 L 1938 7174 L 1959 7165 L 1951 7179 L 1975 7158 L 2001 7141 L 2032 7132 L 2032 7125 L 2056 7120 L 2072 7110 L 2071 7103 L 2031 7098 L 2012 7101 L 1969 7096 L 1988 7115 L 1981 7122 L 1947 7123 L 1943 7146 L 1905 7153 L 1889 7164 L 1853 7169 L 1855 7164 L 1855 7164 L 1855 7164 L 1855 7164 M 2155 7028 L 2135 7047 L 2111 7045 L 2089 7048 L 2082 7041 L 2064 7053 L 2074 7060 L 2115 7053 L 2117 7084 L 2096 7090 L 2109 7103 L 2137 7092 L 2166 7099 L 2199 7090 L 2208 7073 L 2233 7069 L 2259 7042 L 2238 7052 L 2200 7055 L 2180 7046 L 2175 7053 L 2155 7028 L 2155 7028 M 2047 7201 L 2046 7203 L 2033 7206 L 2046 7218 L 2027 7244 L 2014 7244 L 2005 7231 L 1997 7241 L 2013 7249 L 2015 7259 L 2031 7244 L 2046 7219 L 2047 7201 L 2047 7201 L 2047 7201 M 868 7348 L 855 7359 L 868 7357 L 868 7348 L 868 7348 L 868 7348 L 868 7348 M 2462 6826 L 2467 6836 L 2464 6826 L 2462 6826 L 2462 6826 L 2462 6826 L 2462 6826 Z" stroke="transparent" stroke-width="inherit" opacity="1" class="highcharts-point highcharts-null-point highcharts-color-0 highcharts-name-north-america highcharts-key-na"></path><path fill="#2e2e2e" d="M 2042 4982 L 2057 4981 L 2063 4959 L 2047 4958 L 2041 4944 L 2030 4948 L 2032 4981 L 2042 4982 L 2042 4982 M 2057 5107 L 2069 5101 L 2088 5112 L 2083 5080 L 2057 5107 L 2057 5107 M 2093 4769 L 2083 4773 L 2111 4775 L 2133 4760 L 2113 4746 L 2093 4769 L 2093 4769 M 2105 5194 L 2090 5187 L 2097 5168 L 2086 5153 L 2067 5158 L 2075 5180 L 2077 5208 L 2091 5210 L 2105 5194 L 2105 5194 M 2784 6507 L 2766 6511 L 2795 6520 L 2789 6506 L 2800 6511 L 2808 6504 L 2832 6500 L 2819 6466 L 2790 6456 L 2767 6457 L 2761 6477 L 2752 6484 L 2765 6501 L 2784 6507 L 2784 6507 M 1592 6518 L 1592 6500 L 1601 6494 L 1593 6470 L 1592 6489 L 1581 6480 L 1567 6479 L 1576 6492 L 1561 6509 L 1569 6513 L 1580 6496 L 1592 6518 L 1592 6518 M 3135 4751 L 3177 4747 L 3203 4721 L 3193 4715 L 3183 4730 L 3149 4750 L 3135 4751 L 3135 4751 M 2459 4867 L 2482 4856 L 2512 4855 L 2494 4833 L 2473 4822 L 2460 4829 L 2485 4845 L 2459 4867 L 2459 4867 M 2499 4832 L 2520 4845 L 2521 4859 L 2539 4851 L 2552 4856 L 2557 4843 L 2537 4835 L 2537 4827 L 2514 4831 L 2498 4817 L 2499 4832 L 2499 4832 M 2282 4710 L 2287 4697 L 2272 4699 L 2266 4690 L 2277 4679 L 2266 4673 L 2265 4700 L 2253 4701 L 2245 4714 L 2282 4710 L 2282 4710 M 1964 6720 L 1985 6741 L 1979 6762 L 1995 6747 L 1992 6759 L 2012 6772 L 2028 6793 L 2034 6819 L 2054 6835 L 2068 6825 L 2073 6841 L 2099 6840 L 2130 6858 L 2132 6868 L 2146 6875 L 2163 6864 L 2156 6854 L 2139 6849 L 2150 6823 L 2134 6797 L 2152 6774 L 2165 6783 L 2166 6795 L 2150 6826 L 2198 6847 L 2187 6857 L 2200 6874 L 2207 6845 L 2230 6845 L 2244 6835 L 2248 6819 L 2257 6816 L 2306 6821 L 2319 6809 L 2341 6803 L 2368 6816 L 2375 6823 L 2410 6824 L 2433 6821 L 2405 6818 L 2436 6796 L 2442 6799 L 2467 6782 L 2470 6761 L 2490 6759 L 2515 6745 L 2536 6723 L 2536 6711 L 2547 6708 L 2574 6687 L 2610 6678 L 2613 6683 L 2644 6684 L 2666 6679 L 2696 6668 L 2726 6645 L 2736 6631 L 2748 6630 L 2750 6615 L 2764 6572 L 2787 6557 L 2788 6543 L 2761 6514 L 2748 6505 L 2747 6478 L 2732 6466 L 2720 6469 L 2705 6462 L 2728 6463 L 2756 6476 L 2765 6456 L 2807 6452 L 2833 6470 L 2842 6489 L 2878 6488 L 2888 6479 L 2897 6482 L 2922 6458 L 2932 6472 L 2946 6455 L 2950 6434 L 2959 6427 L 2970 6442 L 3013 6426 L 3013 6430 L 3039 6423 L 3079 6425 L 3118 6401 L 3161 6365 L 3180 6359 L 3211 6358 L 3218 6348 L 3232 6299 L 3231 6277 L 3217 6239 L 3184 6201 L 3170 6193 L 3148 6155 L 3128 6129 L 3111 6115 L 3106 6077 L 3112 6042 L 3102 6002 L 3104 5987 L 3087 5961 L 3087 5934 L 3068 5901 L 3057 5891 L 3047 5870 L 3050 5857 L 3021 5839 L 3018 5826 L 2940 5821 L 2919 5804 L 2906 5801 L 2874 5784 L 2848 5765 L 2826 5735 L 2823 5709 L 2832 5685 L 2819 5649 L 2790 5622 L 2775 5590 L 2751 5557 L 2751 5570 L 2763 5579 L 2764 5593 L 2748 5599 L 2742 5570 L 2728 5563 L 2720 5549 L 2718 5531 L 2707 5504 L 2685 5483 L 2674 5462 L 2639 5443 L 2614 5449 L 2599 5445 L 2575 5459 L 2553 5459 L 2538 5477 L 2538 5505 L 2532 5465 L 2545 5450 L 2563 5441 L 2574 5425 L 2571 5403 L 2587 5395 L 2588 5380 L 2564 5345 L 2561 5336 L 2518 5317 L 2465 5308 L 2431 5309 L 2423 5279 L 2422 5242 L 2399 5232 L 2379 5232 L 2346 5248 L 2338 5237 L 2341 5203 L 2358 5194 L 2378 5200 L 2384 5176 L 2370 5171 L 2360 5185 L 2343 5175 L 2360 5168 L 2333 5143 L 2337 5118 L 2323 5106 L 2326 5094 L 2308 5095 L 2288 5087 L 2275 5073 L 2266 5053 L 2272 5038 L 2291 5022 L 2314 5019 L 2322 5003 L 2315 4983 L 2268 4946 L 2260 4911 L 2229 4896 L 2221 4871 L 2227 4845 L 2244 4819 L 2213 4821 L 2175 4802 L 2166 4759 L 2148 4759 L 2129 4768 L 2129 4782 L 2156 4787 L 2162 4799 L 2124 4784 L 2127 4770 L 2102 4782 L 2116 4797 L 2150 4809 L 2128 4810 L 2094 4786 L 2082 4791 L 2090 4802 L 2075 4803 L 2080 4819 L 2091 4818 L 2066 4837 L 2081 4845 L 2083 4860 L 2066 4862 L 2040 4846 L 2050 4866 L 2046 4881 L 2069 4876 L 2055 4890 L 2071 4892 L 2058 4901 L 2068 4905 L 2065 4927 L 2066 4915 L 2036 4879 L 2037 4902 L 2045 4914 L 2031 4923 L 2040 4937 L 2051 4937 L 2047 4953 L 2063 4957 L 2065 4928 L 2067 4962 L 2051 4993 L 2075 5022 L 2047 5035 L 2033 5024 L 2028 5035 L 2051 5055 L 2048 5064 L 2071 5087 L 2070 5073 L 2093 5078 L 2099 5098 L 2094 5108 L 2104 5126 L 2071 5125 L 2074 5137 L 2106 5134 L 2105 5151 L 2115 5167 L 2110 5177 L 2120 5201 L 2109 5221 L 2105 5211 L 2086 5211 L 2080 5238 L 2087 5273 L 2101 5290 L 2092 5326 L 2080 5330 L 2094 5338 L 2088 5362 L 2102 5369 L 2118 5423 L 2131 5438 L 2137 5469 L 2148 5490 L 2155 5528 L 2147 5568 L 2148 5597 L 2158 5607 L 2151 5638 L 2169 5680 L 2183 5752 L 2179 5771 L 2182 5800 L 2179 5821 L 2187 5827 L 2194 5873 L 2190 5891 L 2193 5914 L 2186 5954 L 2187 5963 L 2155 5986 L 2152 5999 L 2127 6014 L 2087 6030 L 2044 6056 L 2022 6078 L 2007 6101 L 2013 6116 L 1985 6154 L 1985 6164 L 1971 6177 L 1932 6268 L 1918 6283 L 1903 6310 L 1879 6324 L 1868 6337 L 1877 6343 L 1867 6356 L 1865 6385 L 1879 6400 L 1903 6415 L 1910 6434 L 1899 6421 L 1896 6429 L 1875 6441 L 1880 6447 L 1875 6477 L 1886 6483 L 1887 6497 L 1900 6510 L 1901 6533 L 1932 6541 L 1931 6556 L 1944 6561 L 1940 6573 L 1951 6586 L 1967 6584 L 1969 6596 L 1985 6618 L 1974 6632 L 1981 6642 L 1978 6668 L 1983 6678 L 1976 6690 L 1980 6700 L 1964 6720 L 1964 6720 M 2202 4715 L 2184 4717 L 2169 4708 L 2155 4725 L 2138 4721 L 2137 4733 L 2168 4733 L 2144 4749 L 2142 4738 L 2130 4754 L 2141 4756 L 2160 4745 L 2172 4747 L 2170 4758 L 2182 4769 L 2190 4742 L 2226 4734 L 2195 4748 L 2191 4759 L 2215 4771 L 2215 4777 L 2189 4773 L 2184 4791 L 2204 4801 L 2213 4813 L 2221 4804 L 2232 4810 L 2247 4794 L 2242 4780 L 2276 4749 L 2318 4725 L 2339 4726 L 2353 4715 L 2314 4712 L 2297 4699 L 2298 4709 L 2284 4715 L 2246 4719 L 2229 4714 L 2242 4713 L 2237 4705 L 2248 4689 L 2227 4693 L 2231 4703 L 2202 4694 L 2199 4709 L 2202 4715 L 2202 4715 Z" stroke="transparent" stroke-width="inherit" opacity="1" class="highcharts-point highcharts-null-point highcharts-color-0 highcharts-name-south-america highcharts-key-sa"></path></g></g><g class="highcharts-markers highcharts-series-0 highcharts-map-series highcharts-color-0 highcharts-tracker" data-z-index="0.1" opacity="1" transform="translate(10,10) scale(1 1)" clip-path="none"></g><g class="highcharts-series highcharts-series-1 highcharts-mapline-series highcharts-color-1" data-z-index="0.1" opacity="1" transform="translate(10,10) scale(1 1)" clip-path="url(#highcharts-of8pmjr-8-)"><g transform="translate(52.38995391705075,568.3366820276497) scale(0.052442396313364045 -0.052442396313364045)" stroke-width="19.068541300527244"></g></g><g class="highcharts-markers highcharts-series-1 highcharts-mapline-series highcharts-color-1" data-z-index="0.1" opacity="1" transform="translate(10,10) scale(1 1)" clip-path="none"></g><g class="highcharts-series highcharts-series-2 highcharts-mappoint-series highcharts-tracker" data-z-index="0.1" opacity="1" transform="translate(10,10) scale(1 1)" clip-path="url(#highcharts-of8pmjr-8-)"></g><g class="highcharts-markers highcharts-series-2 highcharts-mappoint-series highcharts-tracker" data-z-index="0.1" opacity="1" transform="translate(10,10) scale(1 1)" clip-path="none"><path fill="#ffffff" d="M 396 201 A 4 4 0 1 1 396.00399999933336 200.99999800000018 Z" opacity="1" class="highcharts-point"></path><path fill="#ffffff" d="M 435 229 A 4 4 0 1 1 435.00399999933336 228.99999800000018 Z" opacity="1" class="highcharts-point"></path><path fill="#ffffff" d="M 275 144 A 4 4 0 1 1 275.00399999933336 143.99999800000018 Z" opacity="1" class="highcharts-point"></path><path fill="#ffffff" d="M 161 165 A 4 4 0 1 1 161.00399999933333 164.99999800000018 Z" opacity="1" class="highcharts-point"></path><path fill="#ffffff" d="M 87 171 A 4 4 0 1 1 87.00399999933333 170.99999800000018 Z" opacity="1" class="highcharts-point"></path><path fill="#ffffff" d="M 360 191 A 4 4 0 1 1 360.00399999933336 190.99999800000018 Z" opacity="1" class="highcharts-point"></path></g></g><text x="10" class="highcharts-title" data-z-index="4" style="color: rgb(51, 51, 51); font-size: 18px; fill: rgb(51, 51, 51);" y="24"></text><text x="295" text-anchor="middle" class="highcharts-subtitle" data-z-index="4" style="color: rgb(102, 102, 102); fill: rgb(102, 102, 102);" y="24"></text><text x="10" text-anchor="start" class="highcharts-caption" data-z-index="4" style="color: rgb(102, 102, 102); fill: rgb(102, 102, 102);" y="397"></text><g class="highcharts-map-view" data-z-index="4"></g><g class="highcharts-data-labels highcharts-series-2 highcharts-mappoint-series highcharts-tracker" data-z-index="6" opacity="1" transform="translate(10,10) scale(1 1)" clip-path="url(#highcharts-of8pmjr-7-)"><g class="highcharts-label highcharts-data-label highcharts-data-label-color-undefined" data-z-index="1" style="text-shadow: none;" transform="translate(380,174)"><text x="5" data-z-index="1" y="16" style="color: rgb(255, 255, 255); font-size: 11px; font-weight: 400; fill: rgb(255, 255, 255);"><tspan class="highcharts-text-outline" fill="#000000" stroke="#000000" stroke-width="2px" stroke-linejoin="round" style="">India<tspan x="5" dy="0"></tspan></tspan>India</text></g><g class="highcharts-label highcharts-data-label highcharts-data-label-color-undefined" data-z-index="1" style="text-shadow: none;" transform="translate(406,202)"><text x="5" data-z-index="1" y="16" style="color: rgb(255, 255, 255); font-size: 11px; font-weight: 400; fill: rgb(255, 255, 255);"><tspan class="highcharts-text-outline" fill="#000000" stroke="#000000" stroke-width="2px" stroke-linejoin="round" style="">Singapore<tspan x="5" dy="0"></tspan></tspan>Singapore</text></g><g class="highcharts-label highcharts-data-label highcharts-data-label-color-undefined" data-z-index="1" style="text-shadow: none;" transform="translate(252,117)"><text x="5" data-z-index="1" y="16" style="color: rgb(255, 255, 255); font-size: 11px; font-weight: 400; fill: rgb(255, 255, 255);"><tspan class="highcharts-text-outline" fill="#000000" stroke="#000000" stroke-width="2px" stroke-linejoin="round" style="">London<tspan x="5" dy="0"></tspan></tspan>London</text></g><g class="highcharts-label highcharts-data-label highcharts-data-label-color-undefined" data-z-index="1" style="text-shadow: none;" transform="translate(133,138)"><text x="5" data-z-index="1" y="16" style="color: rgb(255, 255, 255); font-size: 11px; font-weight: 400; fill: rgb(255, 255, 255);"><tspan class="highcharts-text-outline" fill="#000000" stroke="#000000" stroke-width="2px" stroke-linejoin="round" style="">New York<tspan x="5" dy="0"></tspan></tspan>New York</text></g><g class="highcharts-label highcharts-data-label highcharts-data-label-color-undefined" data-z-index="1" style="text-shadow: none;" transform="translate(53,144)"><text x="5" data-z-index="1" y="16" style="color: rgb(255, 255, 255); font-size: 11px; font-weight: 400; fill: rgb(255, 255, 255);"><tspan class="highcharts-text-outline" fill="#000000" stroke="#000000" stroke-width="2px" stroke-linejoin="round" style="">Santa Clara<tspan x="5" dy="0"></tspan></tspan>Santa Clara</text></g><g class="highcharts-label highcharts-data-label highcharts-data-label-color-undefined" data-z-index="1" style="text-shadow: none;" transform="translate(345,164)"><text x="5" data-z-index="1" y="16" style="color: rgb(255, 255, 255); font-size: 11px; font-weight: 400; fill: rgb(255, 255, 255);"><tspan class="highcharts-text-outline" fill="#000000" stroke="#000000" stroke-width="2px" stroke-linejoin="round" style="">UAE<tspan x="5" dy="0"></tspan></tspan>UAE</text></g></g><g class="highcharts-legend highcharts-no-tooltip" data-z-index="7" visibility="hidden"><rect fill="none" class="highcharts-legend-box" rx="0" ry="0" x="0" y="0" width="8" height="8"></rect><g data-z-index="1"><g></g></g></g><text x="579" class="highcharts-credits" text-anchor="end" data-z-index="8" style="cursor: pointer; color: rgb(153, 153, 153); font-size: 9px; fill: rgb(153, 153, 153);" y="395"><title>Copyright (c) 2022 Highsoft AS, Based on data from Natural Earth</title>Highcharts.com  <a href="http://www.naturalearthdata.com"><tspan>Natural Earth</tspan></a></text></svg>