<svg width="32" height="32" xmlns="http://www.w3.org/2000/svg"><g fill="none" fill-rule="evenodd"><path d="m12.0932 6.7482 4.6526 2.75h7.6648c1.248 0 1.7007.13 2.157.374.4563.244.8144.6021 1.0584 1.0584.244.4563.374.909.374 2.157v8.573c0 1.248-.13 1.7007-.374 2.157-.244.4563-.6021.8144-1.0584 1.0584-.4563.244-.909.374-2.157.374l-.1147-.0008.0004-2.5616c0-.6484-.0614-.921-.1773-1.1612l-.0364-.0714a1.4538 1.4538 0 0 0-.6048-.6048c-.2608-.1394-.5194-.2137-1.2326-.2137h-5.4896c-.7132 0-.9718.0743-1.2325.2137a1.4538 1.4538 0 0 0-.6049.6048c-.1394.2608-.2137.5194-.2137 1.2326l-.0006 2.5616-7.3676.0008c-1.248 0-1.7007-.13-2.157-.374-.4563-.244-.8144-.6021-1.0584-1.0584-.244-.4563-.374-.909-.374-2.157v-11.323c0-1.248.13-1.7007.374-2.157.244-.4563.6021-.8144 1.0584-1.0584.4563-.244.909-.374 2.157-.374h4.757Z" fill="#FAD266"/><g stroke="#000" stroke-width="1.5"><path d="M14.87 25.25H7.308c-1.2383 0-1.6873-.1276-2.14-.3673-.4526-.2397-.8079-.5914-1.05-1.0395-.242-.4482-.371-.8927-.371-2.1185V10.2735c0-1.2258.129-1.6703.371-2.1185.2421-.4481.5974-.7998 1.05-1.0395.4527-.2397.9017-.3673 2.14-.3673h3.5727c1.2616 0 2.4719.4943 3.3665 1.375.8946.8807 2.105 1.375 3.3666 1.375h7.0718c1.2383 0 1.6873.1276 2.14.3673.4526.2397.8079.5914 1.05 1.0395.242.4482.371.8927.371 2.1185v9.004c0 .8624-.129 1.3675-.371 1.8157-.2421.4481-.5974.7998-1.05 1.0395-.4527.2397-.963.3673-1.8341.3673h-.3168"/><path d="M22.9669 20.759c.5008 0 .693.0257.8789.1251.3966.483.4222.6752.4222 1.176v3.8888c0 .5008-.0256.693-.125.8789-.4832.3966-.6753.4222-1.1761.4222h-6.9c-.5008 0-.693-.0256-.8789-.125-.3966-.4831-.4222-.6753-.4222-1.1761V22.06c0-.5008.0256-.693.125-.8788.4832-.3966.6753-.4223 1.1761-.4223ZM16.7573 20.6365V17.483c0-1.5163 1.2292-2.7455 2.7456-2.7455 1.5163 0 2.7456 1.2292 2.7456 2.7455v3.1536"/></g></g></svg>